<svg width="560" height="260" viewBox="0 0 560 260" fill="none" xmlns="http://www.w3.org/2000/svg">
<path d="M241.59 0.794067H241.43C241.193 0.794067 241 0.986608 241 1.22409V259.044C241 259.282 241.193 259.474 241.43 259.474H241.59C241.827 259.474 242.02 259.282 242.02 259.044V1.22409C242.02 0.986608 241.827 0.794067 241.59 0.794067Z" fill="#F56BBD"/>
<path d="M436.59 88.6841L441.95 84.7041C442.21 84.5108 442.393 84.2608 442.5 83.9541C443.76 80.3008 446.12 78.2141 449.58 77.6941C451.013 77.4808 452.167 77.7741 453.04 78.5741C457.14 82.3341 451.05 87.7541 448.15 90.3041C446.77 91.5108 445.57 92.2141 444.55 92.4141C444.33 92.4541 444.213 92.5841 444.2 92.8041C443.86 96.9741 446.95 98.5041 450.44 96.4841C454.527 94.1241 457.947 91.0675 460.7 87.3141C461.887 85.6875 462.85 83.5374 463.59 80.8641C466.763 69.3374 470.703 58.0774 475.41 47.0841C476.68 44.1141 478.47 41.3941 480.15 38.6141C481.217 36.8541 482.46 36.2274 483.88 36.7341C484.342 36.8986 484.74 37.208 485.013 37.6167C485.287 38.0254 485.423 38.5118 485.4 39.0041C485.1 45.5641 482.4 52.2041 479.69 58.2741C475.683 67.2074 471.697 76.1508 467.73 85.1041C467.59 85.4241 467.363 85.6508 467.05 85.7841L466.6 85.9841C466.313 86.1041 466.127 86.3175 466.04 86.6241C464.5 92.2775 463.223 97.9808 462.21 103.734C461.697 106.621 461.627 109.477 462 112.304C462.22 113.964 463.013 114.307 464.38 113.334C465.01 112.884 465.59 112.594 466.24 111.854C472.91 104.184 479.68 95.1941 483.62 86.2041C484.49 84.2241 484.9 78.8741 488.63 79.3741C489.963 79.5475 490.33 80.2341 489.73 81.4341C488.19 84.5641 483.03 97.0441 486.54 99.2941C486.86 99.5008 487.193 99.5341 487.54 99.3941C494.81 96.4741 500.46 90.4441 504.25 84.2941C505.83 81.7341 508.43 77.9941 511.84 78.5441C513.987 78.8974 515.333 80.3941 515.88 83.0341C516.227 84.7275 515.56 85.7608 513.88 86.1341C513.807 86.1505 513.732 86.1505 513.66 86.1341C513.587 86.1177 513.519 86.0853 513.461 86.0393C513.402 85.9933 513.355 85.9349 513.322 85.8683C513.289 85.8016 513.271 85.7285 513.27 85.6541L513.23 82.9241C513.227 82.7607 513.184 82.6004 513.105 82.4577C513.025 82.3149 512.912 82.1941 512.774 82.1059C512.636 82.0178 512.479 81.9651 512.316 81.9526C512.153 81.9401 511.989 81.9681 511.84 82.0341C510.88 82.4541 509.8 82.9041 509.18 83.8241C507.29 86.6441 503.85 94.6841 506.95 97.5341C508.217 98.6941 509.9 98.6308 512 97.3441C517.487 93.9841 521.917 89.3475 525.29 83.4341C525.63 82.8408 526.74 81.7275 528.62 80.0941C531.62 77.4875 534.52 77.1374 537.32 79.0441C539.007 80.1974 540.013 82.1574 540.34 84.9241C540.407 85.5108 540.607 85.5608 540.94 85.0741L544.24 80.1841C544.332 80.0401 544.463 79.9226 544.62 79.8441L546.5 78.9241C546.736 78.8077 547.002 78.7678 547.261 78.81C547.52 78.8522 547.76 78.9744 547.948 79.1598C548.135 79.3451 548.261 79.5845 548.308 79.845C548.355 80.1054 548.321 80.3741 548.21 80.6141C544.883 87.7208 542.547 95.1608 541.2 102.934C541.16 103.171 541.199 103.415 541.312 103.628C541.425 103.84 541.606 104.009 541.825 104.109C542.044 104.208 542.29 104.232 542.524 104.177C542.759 104.122 542.968 103.991 543.12 103.804C548.173 97.6041 552.777 91.4174 556.93 85.2441C557.257 84.7508 557.557 84.4241 557.83 84.2641C558.443 83.9041 558.943 84.0975 559.33 84.8441C559.406 84.9903 559.441 85.1538 559.432 85.3174C559.423 85.4809 559.371 85.6387 559.28 85.7741C555.32 91.7674 551.22 97.3241 546.98 102.444C545.307 104.464 543.437 106.047 541.37 107.194C541.095 107.347 540.791 107.439 540.477 107.464C540.164 107.489 539.848 107.446 539.553 107.339C539.257 107.232 538.988 107.063 538.763 106.843C538.538 106.623 538.363 106.357 538.25 106.064C536.99 102.804 538.17 98.6041 539.03 95.1541C539.47 93.4041 540.65 91.0041 541.08 88.7941C541.147 88.4541 541.067 88.4108 540.84 88.6641C539.793 89.8175 537.803 91.6874 534.87 94.2741C531.703 97.0608 528.447 98.4475 525.1 98.4341C524.673 98.4341 524.32 98.2741 524.04 97.9541C522.607 96.3608 522.037 94.4375 522.33 92.1841C522.377 91.8241 522.267 91.7674 522 92.0141C519.39 94.4341 516.61 97.7041 513.43 99.2641C505.76 103.034 501.66 101.274 502.02 92.3941C502.04 91.8808 501.877 91.8108 501.53 92.1841C498.66 95.2141 486.81 106.554 482.56 100.504C481.613 99.1508 481.303 97.4308 481.63 95.3441C481.77 94.4775 481.61 94.4175 481.15 95.1641C476.637 102.484 471.557 109.391 465.91 115.884C465.663 116.171 465.357 116.274 464.99 116.194C464.623 116.121 464.297 116.204 464.01 116.444C463.777 116.637 463.517 116.777 463.23 116.864C454.4 119.394 459.96 94.7141 460.83 91.3641C460.95 90.8908 460.833 90.8241 460.48 91.1641C457.54 94.0441 455.4 96.4541 451.27 98.6241C442.62 103.174 439.62 97.3541 440.55 89.4541C440.623 88.8141 440.41 88.6975 439.91 89.1041L425.59 100.664C425.037 101.111 424.713 101.687 424.62 102.394C423.253 112.494 420.63 122.261 416.75 131.694C415.75 134.144 414.01 135.874 412.22 137.734C410.22 139.241 408.293 139.567 406.44 138.714C398.17 134.914 403.28 123.074 407.25 117.424C411.237 111.764 415.77 106.574 420.85 101.854C421.038 101.673 421.161 101.437 421.2 101.184L423.65 84.9141C423.697 84.6008 423.62 84.5675 423.42 84.8141C419.31 89.8241 412.09 98.4841 405 98.1641C404.619 98.1448 404.257 97.9886 403.98 97.7241C402.5 96.2975 401.75 94.5375 401.73 92.4441C401.731 92.3722 401.708 92.3026 401.665 92.2457C401.622 92.1889 401.56 92.1478 401.491 92.1286C401.421 92.1095 401.346 92.1133 401.277 92.1395C401.209 92.1657 401.15 92.213 401.11 92.2741C399.183 95.3608 396.417 97.0541 392.81 97.3541C392.45 97.3875 392.163 97.2541 391.95 96.9541C389.37 93.4441 391.74 87.2541 392.8 83.2741C392.927 82.7741 392.743 82.5874 392.25 82.7141C390.89 83.0741 389.42 83.8675 387.84 85.0941C383.733 88.2808 381.05 92.0108 379.79 96.2841C379.703 96.5708 379.54 96.8074 379.3 96.9941C378.62 97.5408 377.867 97.7441 377.04 97.6041C376.854 97.5736 376.676 97.5038 376.519 97.3993C376.362 97.2949 376.229 97.1582 376.129 96.9984C376.028 96.8385 375.963 96.6592 375.938 96.4722C375.912 96.2853 375.926 96.0951 375.98 95.9141L378.61 86.9741C378.69 86.6875 378.583 86.5541 378.29 86.5741L370.95 87.0041C370.663 87.0175 370.497 87.1641 370.45 87.4441C369.137 95.3908 367.367 106.841 365.14 121.794C364.293 127.454 363.727 132.681 363.44 137.474C363.36 138.727 363.583 140.167 364.11 141.794C364.777 143.847 365.057 145.804 364.95 147.664C364.927 148.072 364.787 148.464 364.548 148.795C364.31 149.126 363.981 149.381 363.602 149.532C363.222 149.682 362.808 149.721 362.407 149.643C362.006 149.566 361.636 149.375 361.34 149.094C358.58 146.464 359.44 136.524 359.89 132.714C361.61 117.881 363.86 103.184 366.64 88.6241C366.665 88.497 366.66 88.3657 366.624 88.2412C366.588 88.1167 366.523 88.0026 366.433 87.9086C366.344 87.8145 366.234 87.7433 366.111 87.7007C365.989 87.6582 365.858 87.6456 365.73 87.6641C353.337 89.3708 341.153 92.0141 329.18 95.5941C328.84 95.7008 328.59 95.9108 328.43 96.2241C326.903 99.2375 325.473 102.291 324.14 105.384C319.367 116.464 313.58 126.981 306.78 136.934C304.687 140.007 301.657 143.364 297.69 147.004C289.603 152.124 282.95 151.271 277.73 144.444C272.09 137.084 275.86 125.624 281.39 119.284C285.663 114.377 290.7 110.307 296.5 107.074C305.613 101.721 315.293 97.5275 325.54 94.4941C325.86 94.4008 326.09 94.2008 326.23 93.8941C330.35 85.0808 333.117 79.0174 334.53 75.7041C340.11 62.6174 346.387 50.5608 353.36 39.5341C356.22 35.0241 363.01 27.3441 368.68 26.5641C376.51 25.4741 376.29 39.8141 375.87 45.1841C374.863 58.2174 373.257 71.1841 371.05 84.0841C370.99 84.4241 371.133 84.5841 371.48 84.5641L379.01 84.1641C379.168 84.1549 379.32 84.0942 379.44 83.9914C379.561 83.8885 379.645 83.7491 379.68 83.5941C380.07 81.7041 382.09 77.7741 384.25 79.9141C384.477 80.1408 384.547 80.4074 384.46 80.7141L383.39 84.6141C383.21 85.2474 383.37 85.3475 383.87 84.9141C386.5 82.6241 390.5 79.7841 393.99 80.4141C396.39 80.8475 397.21 82.3508 396.45 84.9241C395.663 87.5774 394.91 90.2974 394.19 93.0841C394.149 93.2388 394.151 93.4015 394.194 93.5554C394.237 93.7094 394.321 93.849 394.436 93.9601C394.551 94.0711 394.693 94.1494 394.849 94.187C395.004 94.2247 395.167 94.2202 395.32 94.1741C397.14 93.6474 398.653 92.5175 399.86 90.7841C403.06 86.1941 408.98 76.2841 415.91 77.6741C419.49 78.3841 420.12 83.0641 419.19 85.9841C419.185 86.0019 419.187 86.0207 419.195 86.0374C419.202 86.0541 419.215 86.0676 419.232 86.0758C419.248 86.084 419.267 86.0864 419.285 86.0824C419.303 86.0784 419.319 86.0685 419.33 86.0541C420.69 83.8641 423.39 81.9941 424.15 79.7141C424.25 79.4274 424.427 79.1941 424.68 79.0141C425.733 78.2741 426.72 78.2674 427.64 78.9941C427.933 79.2208 428.057 79.5175 428.01 79.8841L425.93 96.9541C425.89 97.2941 426 97.3574 426.26 97.1441L436.59 88.6841ZM344.19 62.6241L343.74 62.8641C343.42 63.0374 343.323 63.2941 343.45 63.6341C343.63 64.1275 343.51 64.4808 343.09 64.6941C343.012 64.74 342.949 64.8098 342.91 64.8941L330.62 91.2841C330.06 92.4908 330.417 92.9008 331.69 92.5141C343.017 89.1074 354.557 86.7008 366.31 85.2941C366.492 85.2735 366.663 85.1951 366.796 85.0707C366.929 84.9464 367.019 84.7827 367.05 84.6041C369.403 71.3308 371.07 57.9941 372.05 44.5941C372.32 40.9041 371.94 37.7141 371.51 33.9541C371.203 31.2408 369.867 29.9141 367.5 29.9741C367.153 29.9808 366.847 30.0975 366.58 30.3241C365.31 31.3941 364.05 32.0741 362.95 33.2541C358.49 38.0541 354.633 43.3041 351.38 49.0041C349.84 51.7041 348.287 54.3908 346.72 57.0641C346.567 57.3241 346.493 57.6041 346.5 57.9041C346.513 58.4041 346.25 58.7275 345.71 58.8741C345.651 58.8903 345.597 58.9179 345.549 58.9554C345.501 58.9928 345.461 59.0394 345.431 59.0924C345.401 59.1454 345.382 59.2038 345.375 59.2641C345.368 59.3245 345.373 59.3857 345.39 59.4441L345.53 59.9441C345.643 60.3575 345.493 60.6175 345.08 60.7241C344.453 60.8908 344.257 61.2241 344.49 61.7241C344.67 62.1175 344.57 62.4175 344.19 62.6241ZM477.46 57.3241C478.967 53.8041 480.547 49.5874 482.2 44.6741C482.693 43.2008 482.917 41.9041 482.87 40.7841C482.865 40.7155 482.838 40.6496 482.793 40.5972C482.747 40.5448 482.686 40.5088 482.62 40.495C482.553 40.4812 482.484 40.4903 482.424 40.521C482.364 40.5517 482.317 40.6021 482.29 40.6641C477.37 51.5108 473.177 62.6374 469.71 74.0441C469.705 74.069 469.71 74.0947 469.722 74.1168C469.734 74.1389 469.754 74.1561 469.777 74.1655C469.801 74.1749 469.827 74.1759 469.851 74.1684C469.875 74.1608 469.896 74.1452 469.91 74.1241C472.76 68.6941 474.33 64.6541 477.46 57.3241ZM450.35 80.9441C447.06 82.6641 445.15 85.6441 444.63 89.2741C444.577 89.6474 444.717 89.7475 445.05 89.5741C448.13 87.9675 450.417 85.5874 451.91 82.4341C452.01 82.2183 452.039 81.9767 451.995 81.7432C451.951 81.5096 451.834 81.2958 451.662 81.1316C451.491 80.9674 451.272 80.861 451.036 80.8274C450.801 80.7938 450.561 80.8346 450.35 80.9441ZM416.5 85.6841L416.6 83.1741C416.609 82.9075 416.559 82.6423 416.454 82.3973C416.349 82.1522 416.192 81.9335 415.993 81.7567C415.794 81.5799 415.559 81.4495 415.305 81.3747C415.05 81.2999 414.782 81.2827 414.52 81.3241C410.17 81.9841 406.82 86.8641 405.99 90.4341C405.33 93.2875 405.957 94.9275 407.87 95.3541C408.299 95.4505 408.751 95.3714 409.13 95.1341C412.497 93.0675 415.453 90.4641 418 87.3241C418.207 87.0641 418.15 86.8874 417.83 86.7941L417.17 86.6141C416.971 86.5581 416.796 86.4359 416.675 86.2672C416.553 86.0984 416.492 85.893 416.5 85.6841ZM538.75 86.9541C538.863 86.8874 538.97 86.8108 539.07 86.7241C539.33 86.4908 539.303 86.3008 538.99 86.1541L538.23 85.8041C538.058 85.7227 537.907 85.604 537.788 85.4569C537.668 85.3097 537.584 85.1379 537.54 84.9541C536.78 81.8641 533.99 81.2241 531.53 82.9141C528.883 84.7275 527.203 87.5008 526.49 91.2341C526.217 92.6741 526.19 93.8808 526.41 94.8541C526.497 95.2341 526.727 95.4741 527.1 95.5741C530.6 96.5241 536.54 89.6741 538.49 87.1841C538.557 87.1041 538.643 87.0274 538.75 86.9541ZM279.24 127.344C277.29 131.414 276.35 137.234 278.62 141.294C282.56 148.354 291.93 148.304 297.35 143.014C301.45 139.021 305.35 134.081 309.05 128.194C312.49 122.721 317.71 112.447 324.71 97.3741C324.803 97.1675 324.743 97.1008 324.53 97.1741C315.67 100.101 308.077 103.281 301.75 106.714C292.49 111.734 285.25 116.784 280.38 125.224C280.253 125.444 280.083 125.631 279.87 125.784C279.583 125.991 279.43 126.284 279.41 126.664C279.403 126.904 279.347 127.131 279.24 127.344ZM408.37 120.314C405.53 124.361 404.287 128.471 404.64 132.644C404.76 134.084 405.9 135.024 407.1 135.574C407.242 135.641 407.396 135.677 407.553 135.683C407.709 135.688 407.865 135.661 408.01 135.604C410.357 134.711 411.863 133.574 412.53 132.194C415.877 125.234 418.34 116.651 419.92 106.444C419.98 106.071 419.873 106.017 419.6 106.284C416.427 109.471 412.683 114.147 408.37 120.314Z" fill="#F56BBD"/>
<path d="M451.21 74.8341C450.83 75.8875 450.033 76.3808 448.82 76.3141C448.553 76.2941 448.41 76.1508 448.39 75.8841C448.31 74.7441 448.89 73.2241 450.25 73.1641C450.923 73.1375 451.28 73.4575 451.32 74.1241C451.333 74.3708 451.297 74.6075 451.21 74.8341Z" fill="#F56BBD"/>
<path d="M487.4 74.9241L487.31 74.1941C487.303 74.1608 487.317 74.1374 487.35 74.1241C487.897 73.9774 488.447 73.8208 489 73.6541C489.627 73.4674 490.123 73.4574 490.49 73.6241C491.297 73.9841 491.623 74.8108 491.47 76.1041C491.438 76.3567 491.35 76.5989 491.212 76.813C491.075 77.0271 490.891 77.2075 490.675 77.341C490.459 77.4744 490.216 77.5574 489.964 77.5839C489.713 77.6104 489.458 77.5797 489.22 77.4941L487.43 76.8341C487.19 76.7474 487.103 76.5841 487.17 76.3441L487.33 75.7941C487.41 75.5074 487.433 75.2174 487.4 74.9241Z" fill="#F56BBD"/>
<path d="M399.44 148.644L559.42 149.004C559.603 149.004 559.764 149.075 559.865 149.202C559.967 149.329 560.001 149.5 559.962 149.679C559.922 149.858 559.811 150.03 559.653 150.157C559.495 150.283 559.303 150.354 559.12 150.354L405.03 150.254C395.103 150.174 385.173 150.327 375.24 150.714C374.033 150.761 373.013 150.554 372.18 150.094C372.038 150.012 371.926 149.886 371.863 149.735C371.799 149.584 371.787 149.416 371.828 149.257C371.868 149.098 371.96 148.957 372.089 148.856C372.218 148.754 372.376 148.697 372.54 148.694L399.44 148.644Z" fill="#F56BBD"/>
<path d="M519.22 197.484L522.78 197.134C523.12 197.094 523.327 196.907 523.4 196.574C523.68 195.247 524.513 194.604 525.9 194.644C526.26 194.657 526.473 194.837 526.54 195.184L526.73 196.174C526.79 196.487 526.967 196.697 527.26 196.804L530.3 197.964C530.633 198.091 530.79 198.331 530.77 198.684C530.697 199.924 530.287 201.027 529.54 201.994C528.353 203.541 527.653 205.084 527.44 206.624C527.413 206.817 527.447 207.014 527.537 207.188C527.627 207.361 527.768 207.502 527.942 207.591C528.116 207.68 528.313 207.712 528.506 207.684C528.699 207.656 528.879 207.569 529.02 207.434C531.713 204.901 534.033 202.194 535.98 199.314C538.29 195.894 538.81 191.194 540.21 187.174C540.249 187.064 540.261 186.946 540.242 186.831C540.223 186.716 540.176 186.607 540.104 186.515C540.032 186.423 539.938 186.351 539.831 186.306C539.723 186.26 539.606 186.242 539.49 186.254L533.51 186.814C533.157 186.847 532.983 186.687 532.99 186.334C532.997 186.207 533.003 186.084 533.01 185.964C533.03 185.657 533.19 185.497 533.49 185.484L540.47 185.124C540.757 185.111 540.94 184.967 541.02 184.694C542.427 179.901 544.403 175.377 546.95 171.124C547.07 170.926 547.241 170.765 547.445 170.656C547.649 170.547 547.879 170.495 548.11 170.505C548.341 170.515 548.565 170.587 548.758 170.714C548.952 170.84 549.108 171.017 549.21 171.224C549.49 171.794 549.52 172.674 549.29 173.334C547.983 177.061 546.603 180.764 545.15 184.444C545.124 184.507 545.115 184.576 545.123 184.643C545.132 184.711 545.157 184.775 545.197 184.83C545.237 184.886 545.29 184.93 545.352 184.958C545.414 184.987 545.482 184.999 545.55 184.994C549.91 184.721 554.243 184.937 558.55 185.644C558.775 185.682 558.983 185.788 559.146 185.949C559.309 186.11 559.418 186.318 559.46 186.544C559.553 187.064 559.423 187.511 559.07 187.884C558.717 188.257 558.433 188.211 558.22 187.744L557.84 186.914C557.653 186.501 557.333 186.284 556.88 186.264L544.95 185.804C544.503 185.791 544.203 185.991 544.05 186.404L541.65 193.064C541.563 193.291 541.42 193.471 541.22 193.604C540.567 194.024 540.137 194.627 539.93 195.414C539.42 197.344 535.4 213.034 542.87 209.054C546.87 206.924 549.96 201.874 552.53 197.444C552.683 197.177 552.9 197.107 553.18 197.234L553.48 197.364C553.713 197.471 553.777 197.641 553.67 197.874C551.79 201.854 543.2 214.424 538.12 210.694C535.58 208.824 536.25 204.094 536.85 201.364C536.863 201.29 536.85 201.214 536.815 201.147C536.779 201.081 536.723 201.028 536.654 200.997C536.586 200.967 536.509 200.959 536.436 200.977C536.362 200.994 536.297 201.036 536.25 201.094C534.23 203.784 529.8 210.814 525.79 208.564C525.51 208.404 525.36 208.164 525.34 207.844C525.11 204.634 527 202.704 527.98 199.924C528.173 199.384 527.983 199.094 527.41 199.054L519.19 198.544C518.837 198.524 518.627 198.687 518.56 199.034C516.873 207.927 515.533 216.867 514.54 225.854C514.29 228.034 515.25 229.884 515.41 232.124C515.422 232.293 515.394 232.461 515.327 232.617C515.261 232.772 515.158 232.909 515.028 233.017C514.898 233.124 514.744 233.199 514.579 233.235C514.414 233.271 514.243 233.268 514.08 233.224C512.31 232.744 512.58 230.324 512.41 228.944C512.303 228.131 512.297 227.284 512.39 226.404C513.29 217.517 514.573 208.751 516.24 200.104C516.268 199.952 516.259 199.796 516.213 199.648C516.166 199.501 516.084 199.368 515.974 199.261C515.864 199.153 515.729 199.076 515.582 199.034C515.434 198.993 515.279 198.99 515.13 199.024L496.36 203.174C496.117 203.231 495.889 203.341 495.693 203.496C495.498 203.652 495.34 203.85 495.23 204.074C491.87 211.124 483.14 231.994 474.31 233.524C468.75 234.484 465.08 229.304 465.75 224.184C467.18 213.314 483.46 205.754 492.94 203.294C493.62 203.121 494.097 202.711 494.37 202.064C497.723 194.091 501.313 186.417 505.14 179.044C507.9 173.744 511.46 167.914 517.12 165.354C517.42 165.221 517.727 165.191 518.04 165.264C521.59 166.144 521.59 170.734 521.42 173.934C521.013 181.661 520.117 189.334 518.73 196.954C518.657 197.347 518.82 197.524 519.22 197.484ZM501.65 189.864C500.077 193.531 498.37 197.097 496.53 200.564C495.95 201.671 496.26 202.054 497.46 201.714C503.533 200.021 509.68 198.744 515.9 197.884C516.253 197.837 516.46 197.637 516.52 197.284C518.5 185.854 519.99 177.474 518.92 168.884C518.885 168.591 518.776 168.312 518.603 168.073C518.43 167.834 518.198 167.644 517.931 167.52C517.663 167.395 517.368 167.341 517.074 167.363C516.78 167.385 516.496 167.482 516.25 167.644C514.13 169.031 512.26 170.931 510.64 173.344C507.127 178.577 504.13 184.084 501.65 189.864ZM543.076 185.471C543.158 185.503 543.444 185.003 543.871 184.081C544.299 183.159 544.834 181.89 545.357 180.555C545.881 179.219 546.35 177.925 546.663 176.958C546.975 175.991 547.105 175.429 547.024 175.397C546.942 175.365 546.656 175.865 546.229 176.787C545.801 177.709 545.266 178.978 544.743 180.314C544.219 181.649 543.75 182.943 543.437 183.91C543.125 184.878 542.995 185.439 543.076 185.471ZM492.36 204.834C485.57 206.684 479.33 209.874 474.5 213.464C469.87 216.914 464.61 223.604 468.16 229.434C469.01 230.824 470.43 231.184 471.89 231.594C480.47 234.034 489.99 210.834 492.71 205.254C492.903 204.861 492.787 204.721 492.36 204.834Z" fill="#F56BBD"/>
<path d="M302.01 230.524C294.68 233.354 283.06 236.034 276.37 231.814C276.11 231.647 275.92 231.421 275.8 231.134C273.69 226.064 276.77 220.524 280.54 217.124C280.793 216.891 281.023 216.911 281.23 217.184C281.557 217.617 281.54 218.021 281.18 218.394C276.21 223.524 273.51 231.884 284.41 231.824C290.717 231.784 296.777 230.467 302.59 227.874C302.83 227.767 303.03 227.611 303.19 227.404C303.39 227.137 303.627 227.051 303.9 227.144C304.247 227.257 304.543 227.184 304.79 226.924C306.04 225.604 307.74 224.814 308.81 223.694C310.61 221.821 311.767 219.631 312.28 217.124C312.68 215.177 312.343 213.441 311.27 211.914C309.917 209.994 308.087 208.721 305.78 208.094C299.273 206.321 292.753 204.527 286.22 202.714C283.393 201.927 281.023 200.661 279.11 198.914C278.043 197.947 277.44 196.697 277.3 195.164C276.45 186.144 286.49 176.554 294.37 172.244L295.12 171.484C295.333 171.271 295.59 171.184 295.89 171.224C296.55 171.311 296.96 171.071 297.12 170.504C297.22 170.144 297.447 170.024 297.8 170.144C298.487 170.371 298.93 170.127 299.13 169.414C299.145 169.357 299.176 169.304 299.22 169.262C299.264 169.22 299.319 169.189 299.38 169.174C299.587 169.121 299.783 169.141 299.97 169.234C300.097 169.294 300.22 169.294 300.34 169.234C305.52 166.424 320.71 161.454 320.34 171.714C320.34 171.761 320.14 172.561 319.74 174.114C319.5 175.047 319.687 175.887 320.3 176.634C320.487 176.867 320.457 177.071 320.21 177.244L317.3 179.294C317.185 179.371 317.046 179.406 316.908 179.392C316.77 179.378 316.641 179.317 316.544 179.219C316.447 179.121 316.389 178.992 316.379 178.856C316.369 178.72 316.408 178.585 316.49 178.474C318.51 175.714 319.163 172.641 318.45 169.254C318.377 168.894 318.17 168.637 317.83 168.484C315.91 167.617 313.63 167.434 310.99 167.934C301.837 169.667 293.88 173.711 287.12 180.064C282.84 184.094 279.09 189.664 279.41 195.684C279.43 196.011 279.553 196.294 279.78 196.534C281.573 198.454 283.56 199.757 285.74 200.444C291.16 202.154 298.01 203.284 304.09 205.394C310.19 207.524 315.85 209.864 314.37 217.754C313.14 224.294 307.92 227.614 302.01 230.524Z" fill="#F56BBD"/>
<path d="M413.22 180.394C414.34 177.914 416.59 171.994 419.08 170.884C419.44 170.717 419.707 170.814 419.88 171.174C420.373 172.207 420.46 173.291 420.14 174.424C419.233 177.617 418.077 180.727 416.67 183.754C414.523 188.367 412.55 193.061 410.75 197.834C410.623 198.154 410.387 198.314 410.04 198.314C409.867 198.314 409.693 198.314 409.52 198.314C409.393 198.314 409.32 198.377 409.3 198.504L407.13 212.304C407.094 212.541 407.134 212.784 407.246 212.996C407.358 213.208 407.535 213.379 407.751 213.483C407.967 213.588 408.211 213.62 408.447 213.575C408.682 213.53 408.897 213.41 409.06 213.234C414.51 207.284 418.5 201.594 420.78 193.614C422.907 186.201 425.53 179.381 428.65 173.154C429.137 172.181 429.947 171.427 431.08 170.894C431.433 170.727 431.697 170.817 431.87 171.164C432.92 173.214 431.5 177.404 430.63 179.434C427.937 185.667 425.23 191.897 422.51 198.124C422.443 198.291 422.32 198.354 422.14 198.314L421.78 198.224C421.747 198.217 421.727 198.227 421.72 198.254C420.287 203.067 419.507 207.977 419.38 212.984C419.367 213.464 419.583 213.617 420.03 213.444C424.16 211.874 429.85 201.554 431.63 197.604C432.723 195.191 434.567 193.961 437.16 193.914C437.493 193.907 437.797 193.994 438.07 194.174C439.143 194.861 439.883 195.801 440.29 196.994C440.317 197.068 440.367 197.133 440.431 197.179C440.495 197.225 440.571 197.251 440.65 197.253C440.728 197.255 440.804 197.234 440.869 197.191C440.933 197.148 440.982 197.087 441.01 197.014C441.483 195.821 442.3 194.957 443.46 194.424C444.733 193.837 445.077 194.181 444.49 195.454C442.723 199.314 441.457 203.331 440.69 207.504C440.664 207.654 440.689 207.808 440.761 207.943C440.833 208.077 440.948 208.183 441.087 208.244C441.226 208.305 441.382 208.317 441.53 208.279C441.677 208.241 441.808 208.155 441.9 208.034L449.64 197.764C449.72 197.656 449.824 197.569 449.945 197.509C450.065 197.45 450.197 197.421 450.33 197.424L450.69 197.434C451.017 197.447 451.083 197.584 450.89 197.844L443.01 208.454L440.75 210.094C440.403 210.341 440.077 210.321 439.77 210.034C437.21 207.684 440.28 200.854 441.4 199.074C441.413 199.047 441.403 199.034 441.37 199.034L441.11 199.024C441.063 199.024 441.027 199.044 441 199.084C439.4 201.274 437.47 202.554 435.37 204.214C434.237 205.101 432.92 205.327 431.42 204.894C431.027 204.774 430.78 204.514 430.68 204.114L430.6 203.814C430.46 203.227 430.22 203.187 429.88 203.694C427.55 207.214 424.23 212.704 420.7 215.044C420.373 215.259 419.993 215.391 419.602 215.425C419.211 215.459 418.823 215.394 418.483 215.237C418.142 215.079 417.862 214.836 417.672 214.534C417.483 214.232 417.392 213.882 417.41 213.524L417.85 204.864C417.903 203.924 417.677 203.851 417.17 204.644C415.09 207.924 411.43 213.764 408.14 215.334C407.847 215.474 407.553 215.481 407.26 215.354C403.98 213.914 405.92 205.114 406.71 201.624C406.728 201.554 406.72 201.481 406.69 201.416C406.659 201.351 406.607 201.299 406.542 201.268C406.477 201.237 406.403 201.23 406.334 201.248C406.264 201.265 406.203 201.306 406.16 201.364C404.087 204.077 401.467 206.024 398.3 207.204C397.97 207.327 397.615 207.371 397.265 207.331C396.915 207.291 396.579 207.17 396.285 206.976C395.991 206.782 395.746 206.521 395.572 206.215C395.397 205.909 395.297 205.566 395.28 205.214L395.14 202.194C395.138 202.158 395.127 202.123 395.106 202.093C395.086 202.062 395.058 202.038 395.025 202.023C394.992 202.007 394.956 202.001 394.92 202.005C394.883 202.009 394.849 202.022 394.82 202.044L391.57 204.544C391.464 204.626 391.338 204.68 391.204 204.699C391.071 204.718 390.935 204.703 390.81 204.654C387.7 203.494 389.53 199.274 389.98 197.014C390 196.921 389.994 196.824 389.961 196.735C389.928 196.646 389.871 196.568 389.795 196.51C389.72 196.452 389.629 196.417 389.534 196.409C389.439 196.401 389.344 196.42 389.26 196.464C385.993 198.097 383.85 200.677 382.83 204.204C382.785 204.356 382.688 204.488 382.557 204.577C382.426 204.666 382.268 204.708 382.11 204.694L381.06 204.604C380.966 204.596 380.875 204.564 380.796 204.512C380.718 204.46 380.653 204.389 380.608 204.306C380.564 204.222 380.541 204.129 380.541 204.035C380.541 203.94 380.565 203.847 380.61 203.764L381.57 201.954C381.617 201.867 381.603 201.801 381.53 201.754C381.51 201.747 381.493 201.737 381.48 201.724C381.453 201.704 381.43 201.707 381.41 201.734C380.08 203.674 376.22 209.524 373.88 209.824C373.643 209.854 373.403 209.833 373.175 209.762C372.948 209.691 372.738 209.572 372.56 209.412C372.383 209.253 372.242 209.057 372.147 208.838C372.052 208.619 372.005 208.383 372.01 208.144C372.063 205.524 372.713 203.037 373.96 200.684C374.003 200.592 374.011 200.488 373.982 200.39C373.954 200.293 373.892 200.209 373.806 200.154C373.721 200.099 373.619 200.077 373.518 200.092C373.418 200.106 373.326 200.157 373.26 200.234C371.407 202.601 369.063 204.241 366.23 205.154C366.018 205.222 365.795 205.247 365.573 205.228C365.351 205.209 365.135 205.146 364.938 205.043C364.741 204.939 364.566 204.798 364.424 204.626C364.282 204.455 364.175 204.257 364.11 204.044L363.91 203.434C363.884 203.352 363.835 203.28 363.768 203.225C363.702 203.171 363.622 203.136 363.537 203.126C363.452 203.115 363.365 203.129 363.288 203.166C363.211 203.203 363.145 203.261 363.1 203.334C358.59 210.754 346.85 217.464 349.86 200.964C349.871 200.893 349.857 200.821 349.821 200.76C349.784 200.698 349.728 200.651 349.661 200.626C349.594 200.602 349.52 200.601 349.453 200.624C349.385 200.647 349.328 200.693 349.29 200.754C348.19 202.667 346.6 203.941 344.52 204.574C344.351 204.627 344.17 204.629 343.999 204.579C343.829 204.529 343.676 204.43 343.56 204.294C341.83 202.274 343.38 198.624 343.9 196.764C344.02 196.344 343.88 196.221 343.48 196.394C340 197.921 337.723 200.511 336.65 204.164C336.574 204.403 336.415 204.608 336.202 204.741C335.99 204.875 335.736 204.928 335.488 204.892C335.239 204.856 335.011 204.733 334.845 204.545C334.679 204.356 334.585 204.115 334.58 203.864V203.094C334.58 202.994 334.547 202.981 334.48 203.054L328.03 210.064C327.926 210.175 327.798 210.262 327.656 210.317C327.514 210.373 327.361 210.396 327.209 210.386C327.057 210.375 326.909 210.331 326.776 210.256C326.643 210.182 326.528 210.078 326.44 209.954C324.59 207.324 326.72 202.714 327.7 199.954C327.893 199.407 327.777 199.324 327.35 199.704C324.88 201.904 321.9 206.254 318.11 204.704C317.817 204.584 317.643 204.371 317.59 204.064C317.01 200.964 317.653 198.304 319.52 196.084C320.62 194.771 321.873 194.064 323.28 193.964C325.2 193.831 326.553 194.887 327.34 197.134C327.363 197.198 327.405 197.253 327.461 197.291C327.516 197.33 327.582 197.351 327.65 197.351C327.718 197.351 327.784 197.33 327.839 197.291C327.895 197.253 327.937 197.198 327.96 197.134C328.353 196.074 329.043 195.247 330.03 194.654C331.583 193.721 332.003 194.091 331.29 195.764C329.677 199.531 328.477 203.417 327.69 207.424C327.667 207.553 327.686 207.686 327.744 207.803C327.803 207.92 327.897 208.015 328.014 208.075C328.13 208.134 328.263 208.154 328.392 208.133C328.521 208.111 328.639 208.048 328.73 207.954C332.263 204.147 335.13 199.921 337.33 195.274C337.413 195.096 337.546 194.945 337.713 194.84C337.88 194.735 338.073 194.681 338.27 194.684L338.85 194.694C338.925 194.695 339 194.713 339.067 194.748C339.133 194.784 339.191 194.834 339.235 194.897C339.279 194.959 339.307 195.031 339.319 195.107C339.33 195.183 339.324 195.261 339.3 195.334L338.74 196.954C338.72 197.012 338.718 197.074 338.734 197.132C338.751 197.191 338.784 197.243 338.831 197.282C338.878 197.321 338.935 197.345 338.996 197.351C339.056 197.357 339.117 197.344 339.17 197.314C340.99 196.214 344.1 193.714 345.81 196.254C345.907 196.396 345.973 196.556 346.002 196.725C346.032 196.895 346.024 197.068 345.98 197.234L344.79 201.974C344.754 202.126 344.767 202.285 344.828 202.428C344.889 202.572 344.994 202.692 345.129 202.771C345.263 202.85 345.419 202.885 345.574 202.869C345.729 202.853 345.874 202.789 345.99 202.684C347.437 201.331 348.613 199.904 349.52 198.404C351.28 195.494 352 190.734 353.2 187.154C353.236 187.044 353.244 186.927 353.223 186.814C353.203 186.7 353.155 186.594 353.083 186.504C353.011 186.414 352.918 186.345 352.813 186.301C352.708 186.257 352.593 186.241 352.48 186.254L346.45 186.824C346.143 186.857 345.993 186.717 346 186.404V185.964C346.007 185.657 346.163 185.497 346.47 185.484L353.46 185.124C353.74 185.111 353.92 184.971 354 184.704C355.24 180.577 356.827 176.607 358.76 172.794C359.787 170.767 360.95 170.207 362.25 171.114C362.448 171.254 362.595 171.457 362.667 171.69C362.739 171.923 362.733 172.174 362.65 172.404L358.31 184.324C358.143 184.797 358.31 185.017 358.81 184.984C363.203 184.724 367.567 184.971 371.9 185.724C372.065 185.753 372.212 185.846 372.309 185.983C372.406 186.119 372.446 186.289 372.42 186.454L372.22 187.634C372.204 187.739 372.155 187.835 372.08 187.908C372.005 187.982 371.907 188.029 371.802 188.042C371.696 188.056 371.589 188.035 371.495 187.983C371.401 187.931 371.325 187.851 371.28 187.754L370.86 186.834C370.693 186.467 370.407 186.274 370 186.254L358.13 185.814C357.737 185.801 357.447 185.967 357.26 186.314C356.327 187.987 355.58 190.034 355.02 192.454C354.873 193.081 354.457 193.574 353.77 193.934C353.634 194.004 353.513 194.101 353.416 194.22C353.318 194.338 353.244 194.476 353.2 194.624C351.967 198.811 351.387 203.081 351.46 207.434C351.471 208.057 351.726 208.652 352.172 209.088C352.617 209.524 353.217 209.767 353.84 209.764C357.17 209.744 361.86 203.664 363.08 201.254C364.44 198.584 365.32 195.544 367.89 194.364C369.83 193.471 371.643 193.997 373.33 195.944C373.477 196.111 373.56 196.291 373.58 196.484C373.62 196.764 373.607 197.054 373.54 197.354C373.533 197.385 373.535 197.417 373.544 197.447C373.554 197.477 373.571 197.504 373.595 197.525C373.618 197.547 373.646 197.561 373.677 197.568C373.708 197.575 373.74 197.574 373.77 197.564C373.87 197.537 373.97 197.507 374.07 197.474C374.197 197.441 374.277 197.364 374.31 197.244C374.71 195.877 375.53 194.891 376.77 194.284C376.896 194.22 377.038 194.196 377.178 194.216C377.318 194.235 377.448 194.297 377.552 194.393C377.655 194.489 377.727 194.614 377.757 194.752C377.787 194.89 377.774 195.034 377.72 195.164C376.28 198.791 375.107 202.494 374.2 206.274C373.693 208.374 374.183 208.641 375.67 207.074C378.983 203.581 381.603 199.624 383.53 195.204C383.605 195.028 383.736 194.882 383.902 194.788C384.068 194.694 384.261 194.658 384.45 194.684L385.1 194.764C385.217 194.78 385.328 194.823 385.425 194.889C385.522 194.956 385.602 195.044 385.658 195.147C385.715 195.251 385.746 195.366 385.75 195.483C385.754 195.601 385.73 195.718 385.68 195.824L384.78 197.714C384.5 198.301 384.597 198.371 385.07 197.924C387.07 196.054 388.42 194.764 391.31 195.224C391.482 195.252 391.647 195.316 391.794 195.41C391.941 195.505 392.066 195.629 392.163 195.775C392.26 195.92 392.325 196.084 392.356 196.256C392.386 196.428 392.381 196.604 392.34 196.774L391 202.204C390.977 202.308 390.986 202.417 391.026 202.515C391.066 202.614 391.136 202.698 391.225 202.755C391.314 202.813 391.419 202.842 391.526 202.838C391.632 202.835 391.735 202.798 391.82 202.734C394.347 200.734 396.113 198.467 397.12 195.934C397.54 194.884 398.11 194.234 399.23 194.454C399.59 194.527 399.72 194.741 399.62 195.094C398.96 197.364 396.8 202.094 397.18 204.274C397.229 204.553 397.349 204.815 397.529 205.035C397.708 205.255 397.941 205.425 398.204 205.529C398.468 205.634 398.754 205.669 399.035 205.631C399.316 205.593 399.583 205.484 399.81 205.314C403.99 202.184 407 199.494 408.62 194.294C410.073 189.634 411.607 185.001 413.22 180.394ZM419.036 174.219C419.076 174.118 419.074 174.005 419.031 173.906C418.988 173.806 418.907 173.727 418.806 173.687L418.787 173.68C418.686 173.64 418.573 173.642 418.473 173.685C418.374 173.728 418.295 173.809 418.255 173.91L411.224 191.669C411.184 191.77 411.186 191.883 411.229 191.983C411.272 192.082 411.353 192.161 411.454 192.201L411.473 192.208C411.574 192.248 411.687 192.247 411.787 192.203C411.886 192.16 411.965 192.079 412.005 191.978L419.036 174.219ZM431.036 174.219C431.076 174.118 431.074 174.005 431.031 173.906C430.988 173.806 430.907 173.727 430.806 173.687L430.787 173.68C430.686 173.64 430.573 173.642 430.473 173.685C430.374 173.728 430.295 173.809 430.255 173.91L423.224 191.669C423.184 191.77 423.186 191.883 423.229 191.983C423.272 192.082 423.353 192.161 423.454 192.201L423.473 192.208C423.574 192.248 423.687 192.247 423.787 192.203C423.886 192.16 423.965 192.079 424.005 191.978L431.036 174.219ZM360.063 176.157C360.088 176.093 360.087 176.021 360.059 175.958C360.032 175.895 359.98 175.845 359.916 175.82L359.879 175.805C359.815 175.78 359.743 175.782 359.68 175.809C359.617 175.837 359.567 175.888 359.542 175.953L355.937 185.151C355.912 185.216 355.913 185.287 355.941 185.35C355.968 185.414 356.02 185.463 356.084 185.488L356.121 185.503C356.186 185.528 356.257 185.527 356.32 185.499C356.383 185.471 356.433 185.42 356.458 185.356L360.063 176.157ZM371.37 197.094L371.04 196.514C370.938 196.338 370.799 196.187 370.633 196.07C370.467 195.954 370.278 195.874 370.078 195.838C369.878 195.802 369.673 195.81 369.476 195.861C369.28 195.912 369.097 196.005 368.94 196.134C366.653 197.981 365.607 200.341 365.8 203.214C365.833 203.714 366.08 203.871 366.54 203.684C369.107 202.631 371.19 200.961 372.79 198.674C373.023 198.347 372.957 198.101 372.59 197.934C372.463 197.881 372.333 197.831 372.2 197.784C371.84 197.657 371.563 197.427 371.37 197.094ZM433.75 203.614C436.03 202.474 437.92 200.864 439.42 198.784C439.647 198.471 439.597 198.207 439.27 197.994C438.843 197.721 438.52 197.324 438.3 196.804C438.186 196.54 438.011 196.306 437.789 196.122C437.567 195.939 437.305 195.811 437.024 195.748C436.742 195.686 436.45 195.691 436.172 195.763C435.893 195.835 435.635 195.973 435.42 196.164C433.407 197.944 432.45 200.191 432.55 202.904C432.555 203.043 432.596 203.178 432.667 203.297C432.738 203.416 432.837 203.515 432.957 203.586C433.076 203.656 433.211 203.696 433.35 203.701C433.488 203.706 433.626 203.676 433.75 203.614ZM321.9 196.644C320.25 198.524 319.23 200.784 319.55 203.384C319.561 203.464 319.589 203.54 319.634 203.606C319.679 203.672 319.738 203.727 319.807 203.766C319.876 203.805 319.953 203.827 320.032 203.83C320.111 203.833 320.189 203.818 320.26 203.784C322.547 202.731 324.483 201.237 326.07 199.304C326.303 199.017 326.36 198.701 326.24 198.354C325.66 196.694 324.527 195.961 322.84 196.154C322.46 196.194 322.147 196.357 321.9 196.644Z" fill="#F56BBD"/>
<path d="M544.743 180.314C543.653 183.096 542.906 185.405 543.076 185.471C543.246 185.538 544.267 183.336 545.357 180.554C546.448 177.773 547.194 175.464 547.024 175.397C546.854 175.331 545.833 177.532 544.743 180.314Z" fill="#35353E"/>
<path d="M399.37 193.734C400.011 193.734 400.53 193.215 400.53 192.574C400.53 191.933 400.011 191.414 399.37 191.414C398.729 191.414 398.21 191.933 398.21 192.574C398.21 193.215 398.729 193.734 399.37 193.734Z" fill="#F56BBD"/>
<path d="M127.844 170.534L113.054 189.544C112.943 189.686 112.799 189.797 112.633 189.868C112.468 189.94 112.286 189.969 112.103 189.953C111.92 189.937 111.742 189.877 111.584 189.778C111.425 189.679 111.291 189.544 111.194 189.384C111.094 189.217 110.99 188.971 110.884 188.644C110.797 188.404 110.78 188.147 110.834 187.874C113.204 175.384 110.994 164.754 104.744 153.274C101.064 146.521 96.6835 140.204 91.6035 134.324C84.3968 125.991 77.9935 118.151 72.3935 110.804C64.9735 101.064 59.1235 88.9741 58.2035 76.9041C56.5935 55.9341 67.7435 37.8841 79.9935 22.0441L99.5035 0.48408C99.6968 0.270746 99.9369 0.130733 100.224 0.0640661C101.15 -0.142601 101.8 0.150738 102.174 0.944071C102.247 1.09538 102.283 1.26267 102.278 1.43162C102.273 1.60057 102.227 1.76612 102.144 1.91407C90.6935 22.4541 96.7135 42.0541 109.544 60.1341C121.114 76.4341 136.134 93.5541 140.994 113.384C145.974 133.734 139.294 153.364 127.844 170.534Z" fill="#F56BBD"/>
<path d="M10.3535 175.474C-1.53987 151.441 -3.18653 127.231 5.41347 102.844C10.3135 88.9341 19.1835 75.6541 29.0935 64.5741C29.2614 64.3859 29.4793 64.2493 29.7219 64.1802C29.9644 64.1112 30.2216 64.1125 30.4635 64.1841C31.2968 64.4308 31.5601 65.0374 31.2535 66.0041C24.3935 87.6941 36.7935 107.374 49.7435 123.454C63.2935 140.294 80.1935 159.394 85.8935 180.694C92.0435 203.664 84.3735 225.404 70.3535 244.024C70.2705 244.134 70.1664 244.227 70.0474 244.296C69.9284 244.366 69.7969 244.411 69.6607 244.429C69.5245 244.446 69.3864 244.436 69.2546 244.4C69.1228 244.363 69 244.3 68.8935 244.214C53.5668 231.914 39.9968 218.351 28.1835 203.524C21.2301 194.804 15.2868 185.454 10.3535 175.474Z" fill="#F56BBD"/>
<path d="M157.023 247.664C136.733 257.574 113.943 261.314 91.7635 256.394C91.5271 256.342 91.3142 256.214 91.1571 256.03C91 255.846 90.9075 255.616 90.8935 255.374C90.8735 255.087 90.9268 254.761 91.0535 254.394C91.1535 254.107 91.3402 253.827 91.6135 253.554C97.7435 247.394 103.803 240.494 109.533 234.664C118.367 225.677 126.97 216.514 135.343 207.174C147.923 193.554 160.313 176.534 166.533 159.094C173.467 139.647 173.703 119.704 167.243 99.2641C165.837 94.8241 164.36 90.394 162.813 85.974C162.613 85.4007 162.543 85.044 162.603 84.904C162.681 84.7193 162.801 84.5556 162.954 84.4263C163.107 84.2969 163.289 84.2056 163.484 84.1597C163.679 84.1139 163.882 84.1148 164.077 84.1625C164.271 84.2102 164.452 84.3033 164.603 84.4341C177.913 96.1341 189.913 109.514 198.773 124.914C217.723 157.884 215.703 193.634 190.443 222.594C181.59 232.747 170.45 241.104 157.023 247.664Z" fill="#F56BBD"/>
</svg>
