<svg width="286" height="208" viewBox="0 0 286 208" fill="none" xmlns="http://www.w3.org/2000/svg">
<path d="M161.652 62.1789L167.012 58.1989C167.272 58.0055 167.455 57.7555 167.562 57.4489C168.822 53.7955 171.182 51.7089 174.642 51.1889C176.075 50.9755 177.228 51.2689 178.102 52.0689C182.202 55.8289 176.112 61.2489 173.212 63.7989C171.832 65.0055 170.632 65.7089 169.612 65.9089C169.392 65.9489 169.275 66.0789 169.262 66.2989C168.922 70.4689 172.012 71.9989 175.502 69.9789C179.589 67.6189 183.009 64.5622 185.762 60.8089C186.949 59.1822 187.912 57.0322 188.652 54.3589C191.825 42.8322 195.765 31.5722 200.472 20.5789C201.742 17.6089 203.532 14.8889 205.212 12.1089C206.278 10.3489 207.522 9.72219 208.942 10.2289C209.404 10.3933 209.802 10.7027 210.075 11.1114C210.349 11.5201 210.484 12.0065 210.462 12.4989C210.162 19.0589 207.462 25.6989 204.752 31.7689C200.745 40.7022 196.758 49.6455 192.792 58.5989C192.652 58.9189 192.425 59.1455 192.112 59.2789L191.662 59.4789C191.375 59.5989 191.188 59.8122 191.102 60.1189C189.562 65.7722 188.285 71.4755 187.272 77.2289C186.758 80.1155 186.689 82.9722 187.062 85.7989C187.282 87.4589 188.075 87.8022 189.442 86.8289C190.072 86.3789 190.652 86.0889 191.302 85.3489C197.972 77.6789 204.742 68.6889 208.682 59.6989C209.552 57.7189 209.962 52.3689 213.692 52.8689C215.025 53.0422 215.392 53.7289 214.792 54.9289C213.252 58.0589 208.092 70.5389 211.602 72.7889C211.922 72.9955 212.255 73.0289 212.602 72.8889C219.872 69.9689 225.522 63.9389 229.312 57.7889C230.892 55.2289 233.492 51.4889 236.902 52.0389C239.048 52.3922 240.395 53.8889 240.942 56.5289C241.289 58.2222 240.622 59.2555 238.942 59.6289C238.869 59.6452 238.794 59.6452 238.722 59.6288C238.649 59.6124 238.581 59.58 238.523 59.5341C238.464 59.4881 238.417 59.4296 238.384 59.363C238.351 59.2964 238.333 59.2232 238.332 59.1489L238.292 56.4189C238.289 56.2554 238.246 56.0952 238.167 55.9524C238.087 55.8097 237.973 55.6888 237.836 55.6007C237.698 55.5125 237.541 55.4599 237.378 55.4473C237.215 55.4348 237.051 55.4628 236.902 55.5289C235.942 55.9489 234.862 56.3989 234.242 57.3189C232.352 60.1389 228.912 68.1789 232.012 71.0289C233.279 72.1889 234.962 72.1255 237.062 70.8389C242.549 67.4789 246.978 62.8422 250.352 56.9289C250.692 56.3355 251.802 55.2222 253.682 53.5889C256.682 50.9822 259.582 50.6322 262.382 52.5389C264.069 53.6922 265.075 55.6522 265.402 58.4189C265.469 59.0055 265.669 59.0555 266.002 58.5689L269.302 53.6789C269.394 53.5349 269.525 53.4174 269.682 53.3389L271.562 52.4189C271.798 52.3024 272.064 52.2626 272.323 52.3048C272.582 52.347 272.822 52.4692 273.01 52.6545C273.197 52.8399 273.323 53.0793 273.37 53.3397C273.417 53.6002 273.383 53.8689 273.272 54.1089C269.945 61.2155 267.609 68.6555 266.262 76.4289C266.222 76.6662 266.261 76.9101 266.374 77.1226C266.487 77.3351 266.667 77.5042 266.887 77.6035C267.106 77.7028 267.352 77.7268 267.586 77.6717C267.82 77.6166 268.03 77.4855 268.182 77.2989C273.235 71.0989 277.839 64.9122 281.992 58.7389C282.319 58.2455 282.619 57.9189 282.892 57.7589C283.505 57.3989 284.005 57.5922 284.392 58.3389C284.468 58.4851 284.503 58.6485 284.494 58.8121C284.485 58.9757 284.433 59.1334 284.342 59.2689C280.382 65.2622 276.282 70.8189 272.042 75.9389C270.368 77.9589 268.499 79.5422 266.432 80.6889C266.157 80.8415 265.852 80.9335 265.539 80.9585C265.225 80.9836 264.91 80.9411 264.615 80.834C264.319 80.7269 264.05 80.5577 263.825 80.3377C263.6 80.1178 263.425 79.8522 263.312 79.5589C262.052 76.2989 263.232 72.0989 264.092 68.6489C264.532 66.8989 265.712 64.4989 266.142 62.2889C266.209 61.9489 266.128 61.9055 265.902 62.1589C264.855 63.3122 262.865 65.1822 259.932 67.7689C256.765 70.5555 253.508 71.9422 250.162 71.9289C249.735 71.9289 249.382 71.7689 249.102 71.4489C247.668 69.8555 247.099 67.9322 247.392 65.6789C247.439 65.3189 247.329 65.2622 247.062 65.5089C244.452 67.9289 241.672 71.1989 238.492 72.7589C230.822 76.5289 226.722 74.7689 227.082 65.8889C227.102 65.3755 226.938 65.3055 226.592 65.6789C223.722 68.7089 211.872 80.0489 207.622 73.9989C206.675 72.6455 206.365 70.9255 206.692 68.8389C206.832 67.9722 206.672 67.9122 206.212 68.6589C201.698 75.9789 196.618 82.8856 190.972 89.3789C190.725 89.6656 190.419 89.7689 190.052 89.6889C189.685 89.6155 189.359 89.6989 189.072 89.9389C188.839 90.1322 188.578 90.2722 188.292 90.3589C179.462 92.8889 185.022 68.2089 185.892 64.8589C186.012 64.3855 185.895 64.3189 185.542 64.6589C182.602 67.5389 180.462 69.9489 176.332 72.1189C167.682 76.6689 164.682 70.8489 165.612 62.9489C165.685 62.3089 165.472 62.1922 164.972 62.5989L150.652 74.1589C150.099 74.6055 149.775 75.1822 149.682 75.8889C148.315 85.9889 145.692 95.7555 141.812 105.189C140.812 107.639 139.072 109.369 137.282 111.229C135.282 112.736 133.355 113.062 131.502 112.209C123.232 108.409 128.342 96.5689 132.312 90.9189C136.299 85.2589 140.832 80.0689 145.912 75.3489C146.1 75.1674 146.223 74.932 146.262 74.6789L148.712 58.4089C148.758 58.0955 148.682 58.0622 148.482 58.3089C144.372 63.3189 137.152 71.9789 130.062 71.6589C129.681 71.6395 129.319 71.4834 129.042 71.2189C127.562 69.7922 126.812 68.0322 126.792 65.9389C126.793 65.867 126.77 65.7974 126.727 65.7405C126.683 65.6836 126.622 65.6425 126.553 65.6234C126.483 65.6042 126.408 65.608 126.339 65.6343C126.271 65.6605 126.212 65.7077 126.172 65.7689C124.245 68.8555 121.479 70.5489 117.872 70.8489C117.512 70.8822 117.225 70.7489 117.012 70.4489C114.432 66.9389 116.802 60.7489 117.862 56.7689C117.989 56.2689 117.805 56.0822 117.312 56.2089C115.952 56.5689 114.482 57.3622 112.902 58.5889C108.795 61.7755 106.112 65.5055 104.852 69.7789C104.765 70.0655 104.602 70.3022 104.362 70.4889C103.682 71.0355 102.928 71.2389 102.102 71.0989C101.916 71.0683 101.738 70.9985 101.581 70.8941C101.424 70.7896 101.291 70.653 101.19 70.4931C101.09 70.3333 101.025 70.1539 100.999 69.967C100.974 69.7801 100.988 69.5898 101.042 69.4089L103.672 60.4689C103.752 60.1822 103.645 60.0489 103.352 60.0689L96.0118 60.4989C95.7252 60.5122 95.5585 60.6589 95.5118 60.9389C94.1985 68.8855 92.4285 80.3355 90.2018 95.2889C89.3552 100.949 88.7885 106.176 88.5019 110.969C88.4219 112.222 88.6452 113.662 89.1718 115.289C89.8385 117.342 90.1185 119.299 90.0118 121.159C89.9886 121.566 89.8493 121.959 89.6104 122.29C89.3715 122.621 89.0429 122.876 88.6634 123.027C88.284 123.177 87.8694 123.216 87.4687 123.138C87.068 123.06 86.6978 122.87 86.4018 122.589C83.6418 119.959 84.5018 110.019 84.9518 106.209C86.6718 91.3755 88.9218 76.6789 91.7018 62.1189C91.7272 61.9918 91.7216 61.8605 91.6857 61.736C91.6498 61.6115 91.5845 61.4974 91.4953 61.4033C91.4062 61.3093 91.2957 61.238 91.1733 61.1955C91.0509 61.1529 90.9201 61.1404 90.7918 61.1589C78.3985 62.8655 66.2152 65.5089 54.2418 69.0889C53.9018 69.1955 53.6518 69.4055 53.4918 69.7189C51.9652 72.7322 50.5352 75.7856 49.2018 78.8789C44.4285 89.9589 38.6418 100.476 31.8418 110.429C29.7485 113.502 26.7185 116.859 22.7519 120.499C14.6652 125.619 8.01183 124.766 2.79183 117.939C-2.84817 110.579 0.921832 99.1189 6.45183 92.7789C10.7252 87.8722 15.7618 83.8022 21.5618 80.5689C30.6752 75.2156 40.3552 71.0222 50.6018 67.9889C50.9218 67.8955 51.1518 67.6955 51.2918 67.3889C55.4118 58.5755 58.1785 52.5122 59.5918 49.1989C65.1718 36.1122 71.4485 24.0555 78.4218 13.0289C81.2818 8.51887 88.0718 0.838872 93.7418 0.0588725C101.572 -1.03113 101.352 13.3089 100.932 18.6789C99.9252 31.7122 98.3185 44.6789 96.1118 57.5789C96.0518 57.9189 96.1952 58.0789 96.5418 58.0589L104.072 57.6589C104.23 57.6496 104.381 57.589 104.502 57.4861C104.623 57.3833 104.707 57.2438 104.742 57.0889C105.132 55.1989 107.152 51.2689 109.312 53.4089C109.539 53.6355 109.609 53.9022 109.522 54.2089L108.452 58.1089C108.272 58.7422 108.432 58.8422 108.932 58.4089C111.562 56.1189 115.562 53.2789 119.052 53.9089C121.452 54.3422 122.272 55.8455 121.512 58.4189C120.725 61.0722 119.972 63.7922 119.252 66.5789C119.211 66.7335 119.213 66.8962 119.256 67.0502C119.299 67.2041 119.383 67.3438 119.498 67.4548C119.613 67.5658 119.755 67.6442 119.911 67.6818C120.066 67.7194 120.229 67.715 120.382 67.6689C122.202 67.1422 123.715 66.0122 124.922 64.2789C128.122 59.6889 134.042 49.7789 140.972 51.1689C144.552 51.8789 145.182 56.5589 144.252 59.4789C144.247 59.4966 144.249 59.5154 144.256 59.5321C144.264 59.5488 144.277 59.5624 144.293 59.5706C144.31 59.5788 144.329 59.5811 144.347 59.5772C144.364 59.5732 144.38 59.5632 144.392 59.5489C145.752 57.3589 148.452 55.4889 149.212 53.2089C149.312 52.9222 149.489 52.6889 149.742 52.5089C150.795 51.7689 151.782 51.7622 152.702 52.4889C152.995 52.7155 153.118 53.0122 153.072 53.3789L150.992 70.4489C150.952 70.7889 151.062 70.8522 151.322 70.6389L161.652 62.1789ZM69.2519 36.1189L68.8018 36.3589C68.4818 36.5322 68.3852 36.7889 68.5118 37.1289C68.6918 37.6222 68.5718 37.9755 68.1518 38.1889C68.0737 38.2348 68.0109 38.3045 67.9719 38.3889L55.6818 64.7789C55.1218 65.9855 55.4785 66.3955 56.7519 66.0089C68.0785 62.6022 79.6185 60.1955 91.3718 58.7889C91.5541 58.7682 91.7246 58.6899 91.858 58.5655C91.9914 58.4411 92.0804 58.2775 92.1118 58.0989C94.4652 44.8255 96.1318 31.4889 97.1118 18.0889C97.3818 14.3989 97.0018 11.2089 96.5718 7.44886C96.2652 4.73552 94.9285 3.40888 92.5619 3.46888C92.2152 3.47554 91.9085 3.59222 91.6418 3.81888C90.3718 4.88888 89.1118 5.56887 88.0118 6.74887C83.5518 11.5489 79.6952 16.7989 76.4419 22.4989C74.9019 25.1989 73.3485 27.8855 71.7819 30.5589C71.6285 30.8189 71.5552 31.0989 71.5619 31.3989C71.5752 31.8989 71.3118 32.2222 70.7718 32.3689C70.7132 32.385 70.6584 32.4126 70.6106 32.4501C70.5627 32.4876 70.5227 32.5341 70.493 32.5871C70.4632 32.6401 70.4443 32.6985 70.4372 32.7589C70.4302 32.8193 70.4351 32.8804 70.4518 32.9389L70.5919 33.4389C70.7052 33.8522 70.5552 34.1122 70.1418 34.2189C69.5152 34.3855 69.3185 34.7189 69.5518 35.2189C69.7318 35.6122 69.6319 35.9122 69.2519 36.1189ZM202.522 30.8189C204.028 27.2989 205.609 23.0822 207.262 18.1689C207.755 16.6955 207.979 15.3989 207.932 14.2789C207.927 14.2102 207.9 14.1444 207.855 14.092C207.809 14.0396 207.748 14.0036 207.681 13.9897C207.615 13.9759 207.546 13.9851 207.486 14.0158C207.426 14.0464 207.379 14.0968 207.352 14.1589C202.432 25.0055 198.238 36.1322 194.772 47.5389C194.767 47.5638 194.772 47.5894 194.784 47.6115C194.796 47.6337 194.816 47.6509 194.839 47.6603C194.863 47.6696 194.889 47.6707 194.913 47.6631C194.937 47.6556 194.958 47.64 194.972 47.6189C197.822 42.1889 199.392 38.1489 202.522 30.8189ZM175.412 54.4389C172.122 56.1589 170.212 59.1389 169.692 62.7689C169.639 63.1422 169.779 63.2422 170.112 63.0689C173.192 61.4622 175.478 59.0822 176.972 55.9289C177.072 55.7131 177.101 55.4715 177.057 55.2379C177.013 55.0044 176.896 54.7905 176.724 54.6263C176.552 54.4621 176.333 54.3558 176.098 54.3222C175.863 54.2886 175.623 54.3294 175.412 54.4389ZM141.562 59.1789L141.662 56.6689C141.671 56.4023 141.621 56.137 141.516 55.892C141.411 55.647 141.254 55.4282 141.055 55.2515C140.856 55.0747 140.621 54.9443 140.366 54.8695C140.112 54.7947 139.844 54.7774 139.582 54.8189C135.232 55.4789 131.882 60.3589 131.052 63.9289C130.392 66.7822 131.019 68.4222 132.932 68.8489C133.36 68.9452 133.813 68.8661 134.192 68.6289C137.559 66.5622 140.515 63.9589 143.062 60.8189C143.269 60.5589 143.212 60.3822 142.892 60.2889L142.232 60.1089C142.033 60.0529 141.858 59.9306 141.737 59.7619C141.615 59.5932 141.554 59.3878 141.562 59.1789ZM263.812 60.4489C263.925 60.3822 264.032 60.3055 264.132 60.2189C264.392 59.9855 264.365 59.7955 264.052 59.6489L263.292 59.2989C263.12 59.2174 262.969 59.0987 262.85 58.9516C262.73 58.8045 262.645 58.6327 262.602 58.4489C261.842 55.3589 259.052 54.7189 256.592 56.4089C253.945 58.2222 252.265 60.9955 251.552 64.7289C251.279 66.1689 251.252 67.3755 251.472 68.3489C251.558 68.7289 251.788 68.9689 252.162 69.0689C255.662 70.0189 261.602 63.1689 263.552 60.6789C263.619 60.5989 263.705 60.5222 263.812 60.4489ZM4.30184 100.839C2.35184 104.909 1.41184 110.729 3.68184 114.789C7.62184 121.849 16.9918 121.799 22.4118 116.509C26.5118 112.516 30.4118 107.576 34.1118 101.689C37.5518 96.2155 42.7718 85.9422 49.7718 70.8689C49.8652 70.6622 49.8052 70.5955 49.5918 70.6689C40.7318 73.5955 33.1385 76.7755 26.8118 80.2089C17.5518 85.2289 10.3119 90.2789 5.44185 98.7189C5.31519 98.9389 5.14518 99.1255 4.93184 99.2789C4.64518 99.4855 4.49185 99.7789 4.47185 100.159C4.46519 100.399 4.4085 100.626 4.30184 100.839ZM133.432 93.8089C130.592 97.8555 129.348 101.966 129.702 106.139C129.822 107.579 130.962 108.519 132.162 109.069C132.304 109.135 132.458 109.172 132.615 109.177C132.771 109.183 132.927 109.156 133.072 109.099C135.418 108.206 136.925 107.069 137.592 105.689C140.939 98.7289 143.402 90.1455 144.982 79.9389C145.042 79.5655 144.935 79.5122 144.662 79.7789C141.488 82.9655 137.745 87.6422 133.432 93.8089Z" fill="#F56BBD"/>
<path d="M176.272 48.3289C175.892 49.3822 175.095 49.8755 173.882 49.8089C173.615 49.7889 173.472 49.6456 173.452 49.3789C173.372 48.2389 173.952 46.7189 175.312 46.6589C175.985 46.6322 176.342 46.9522 176.382 47.6189C176.395 47.8655 176.358 48.1022 176.272 48.3289Z" fill="#F56BBD"/>
<path d="M212.462 48.4189L212.372 47.6889C212.365 47.6556 212.378 47.6322 212.412 47.6189C212.958 47.4722 213.509 47.3156 214.062 47.1489C214.689 46.9622 215.185 46.9522 215.552 47.1189C216.358 47.4789 216.685 48.3056 216.532 49.5989C216.5 49.8515 216.412 50.0938 216.274 50.3078C216.137 50.5219 215.953 50.7024 215.737 50.8358C215.521 50.9692 215.278 51.0522 215.026 51.0787C214.774 51.1052 214.52 51.0745 214.282 50.9889L212.492 50.3289C212.252 50.2422 212.165 50.0789 212.232 49.8389L212.392 49.2889C212.472 49.0022 212.495 48.7122 212.462 48.4189Z" fill="#F56BBD"/>
<path d="M124.502 122.139L284.482 122.499C284.665 122.499 284.825 122.57 284.927 122.697C285.029 122.823 285.063 122.995 285.023 123.174C284.984 123.353 284.873 123.525 284.715 123.651C284.557 123.778 284.365 123.849 284.182 123.849L130.092 123.749C120.165 123.669 110.235 123.822 100.302 124.209C99.0952 124.255 98.0752 124.049 97.2419 123.589C97.0997 123.507 96.9883 123.381 96.9246 123.23C96.861 123.079 96.8486 122.911 96.8895 122.752C96.9303 122.593 97.0221 122.452 97.1508 122.35C97.2794 122.249 97.4379 122.192 97.6019 122.189L124.502 122.139Z" fill="#F56BBD"/>
<path d="M244.282 170.979L247.842 170.629C248.182 170.589 248.389 170.402 248.462 170.069C248.742 168.742 249.575 168.099 250.962 168.139C251.322 168.152 251.535 168.332 251.602 168.679L251.792 169.669C251.852 169.982 252.029 170.192 252.322 170.299L255.362 171.459C255.695 171.586 255.852 171.826 255.832 172.179C255.759 173.419 255.349 174.522 254.602 175.489C253.415 177.036 252.715 178.579 252.502 180.119C252.475 180.312 252.509 180.509 252.599 180.682C252.689 180.855 252.83 180.996 253.004 181.085C253.178 181.174 253.375 181.207 253.568 181.179C253.761 181.151 253.941 181.064 254.082 180.929C256.775 178.396 259.095 175.689 261.042 172.809C263.352 169.389 263.872 164.689 265.272 160.669C265.311 160.559 265.322 160.441 265.304 160.326C265.285 160.211 265.238 160.102 265.166 160.01C265.094 159.918 265 159.846 264.893 159.8C264.785 159.755 264.668 159.737 264.552 159.749L258.572 160.309C258.219 160.342 258.045 160.182 258.052 159.829C258.059 159.702 258.065 159.579 258.072 159.459C258.092 159.152 258.252 158.992 258.552 158.979L265.532 158.619C265.819 158.606 266.002 158.462 266.082 158.189C267.489 153.396 269.465 148.872 272.012 144.619C272.132 144.421 272.303 144.259 272.507 144.151C272.711 144.042 272.94 143.99 273.172 144C273.403 144.01 273.627 144.082 273.82 144.209C274.014 144.335 274.17 144.511 274.272 144.719C274.552 145.289 274.582 146.169 274.352 146.829C273.045 150.556 271.665 154.259 270.212 157.939C270.186 158.002 270.177 158.071 270.185 158.138C270.193 158.206 270.219 158.27 270.259 158.325C270.299 158.38 270.352 158.424 270.414 158.453C270.476 158.482 270.544 158.494 270.612 158.489C274.972 158.216 279.305 158.432 283.612 159.139C283.837 159.176 284.045 159.283 284.208 159.444C284.37 159.605 284.48 159.813 284.522 160.039C284.615 160.559 284.485 161.006 284.132 161.379C283.779 161.752 283.495 161.706 283.282 161.239L282.902 160.409C282.715 159.996 282.395 159.779 281.942 159.759L270.012 159.299C269.565 159.286 269.265 159.486 269.112 159.899L266.712 166.559C266.625 166.786 266.482 166.966 266.282 167.099C265.629 167.519 265.199 168.122 264.992 168.909C264.482 170.839 260.462 186.529 267.932 182.549C271.932 180.419 275.022 175.369 277.592 170.939C277.745 170.672 277.962 170.602 278.242 170.729L278.542 170.859C278.775 170.966 278.839 171.136 278.732 171.369C276.852 175.349 268.262 187.919 263.182 184.189C260.642 182.319 261.312 177.589 261.912 174.859C261.924 174.785 261.912 174.708 261.877 174.642C261.841 174.576 261.785 174.523 261.716 174.492C261.648 174.461 261.571 174.454 261.498 174.472C261.424 174.489 261.359 174.53 261.312 174.589C259.292 177.279 254.862 184.309 250.852 182.059C250.572 181.899 250.422 181.659 250.402 181.339C250.172 178.129 252.062 176.199 253.042 173.419C253.235 172.879 253.045 172.589 252.472 172.549L244.252 172.039C243.899 172.019 243.689 172.182 243.622 172.529C241.935 181.422 240.595 190.362 239.602 199.349C239.352 201.529 240.312 203.379 240.472 205.619C240.484 205.787 240.456 205.956 240.389 206.111C240.323 206.267 240.22 206.404 240.09 206.511C239.96 206.619 239.806 206.694 239.641 206.73C239.476 206.766 239.305 206.762 239.142 206.719C237.372 206.239 237.642 203.819 237.472 202.439C237.365 201.626 237.359 200.779 237.452 199.899C238.352 191.012 239.635 182.246 241.302 173.599C241.33 173.447 241.321 173.29 241.275 173.143C241.228 172.996 241.146 172.863 241.036 172.755C240.926 172.648 240.791 172.57 240.643 172.529C240.496 172.488 240.341 172.484 240.192 172.519L221.422 176.669C221.178 176.725 220.951 176.836 220.755 176.991C220.56 177.147 220.401 177.344 220.292 177.569C216.932 184.619 208.202 205.489 199.372 207.019C193.812 207.979 190.142 202.799 190.812 197.679C192.242 186.809 208.522 179.249 218.002 176.789C218.682 176.616 219.159 176.206 219.432 175.559C222.785 167.586 226.375 159.912 230.202 152.539C232.962 147.239 236.522 141.409 242.182 138.849C242.482 138.716 242.789 138.686 243.102 138.759C246.652 139.639 246.652 144.229 246.482 147.429C246.075 155.156 245.179 162.829 243.792 170.449C243.719 170.842 243.882 171.019 244.282 170.979ZM226.712 163.359C225.139 167.026 223.432 170.592 221.592 174.059C221.012 175.166 221.322 175.549 222.522 175.209C228.595 173.516 234.742 172.239 240.962 171.379C241.315 171.332 241.522 171.132 241.582 170.779C243.562 159.349 245.052 150.969 243.982 142.379C243.947 142.086 243.838 141.807 243.665 141.568C243.492 141.329 243.26 141.139 242.993 141.014C242.725 140.89 242.43 140.836 242.136 140.858C241.842 140.88 241.558 140.977 241.312 141.139C239.192 142.526 237.322 144.426 235.702 146.839C232.189 152.072 229.192 157.579 226.712 163.359ZM268.138 158.966C268.219 158.998 268.506 158.498 268.933 157.576C269.361 156.654 269.896 155.385 270.419 154.049C270.943 152.714 271.412 151.42 271.725 150.453C272.037 149.486 272.167 148.924 272.086 148.892C272.004 148.86 271.718 149.36 271.29 150.282C270.863 151.204 270.328 152.473 269.805 153.808C269.281 155.144 268.812 156.438 268.499 157.405C268.186 158.372 268.057 158.934 268.138 158.966ZM217.422 178.329C210.632 180.179 204.392 183.369 199.562 186.959C194.932 190.409 189.672 197.099 193.222 202.929C194.072 204.319 195.492 204.679 196.952 205.089C205.532 207.529 215.052 184.329 217.772 178.749C217.965 178.356 217.849 178.216 217.422 178.329Z" fill="#F56BBD"/>
<path d="M27.0718 204.019C19.7418 206.849 8.12185 209.529 1.43185 205.309C1.17185 205.142 0.981839 204.915 0.861839 204.629C-1.24816 199.559 1.83183 194.019 5.60183 190.619C5.85516 190.385 6.08517 190.405 6.29183 190.679C6.6185 191.112 6.60184 191.515 6.24184 191.889C1.27184 197.019 -1.42814 205.379 9.47186 205.319C15.7785 205.279 21.8385 203.962 27.6518 201.369C27.8918 201.262 28.0919 201.105 28.2519 200.899C28.4519 200.632 28.6885 200.545 28.9618 200.639C29.3085 200.752 29.6052 200.679 29.8518 200.419C31.1018 199.099 32.8018 198.309 33.8718 197.189C35.6718 195.315 36.8285 193.125 37.3419 190.619C37.7419 188.672 37.4052 186.935 36.3318 185.409C34.9785 183.489 33.1485 182.215 30.8419 181.589C24.3352 179.815 17.8152 178.022 11.2819 176.209C8.45519 175.422 6.08517 174.155 4.17184 172.409C3.10517 171.442 2.50184 170.192 2.36184 168.659C1.51184 159.639 11.5518 150.049 19.4318 145.739L20.1818 144.979C20.3952 144.765 20.6518 144.679 20.9518 144.719C21.6118 144.805 22.0218 144.565 22.1818 143.999C22.2818 143.639 22.5085 143.519 22.8618 143.639C23.5485 143.865 23.9919 143.622 24.1919 142.909C24.2069 142.851 24.238 142.799 24.282 142.757C24.326 142.714 24.3812 142.684 24.4419 142.669C24.6485 142.615 24.8452 142.635 25.0319 142.729C25.1585 142.789 25.2818 142.789 25.4018 142.729C30.5818 139.919 45.7718 134.949 45.4018 145.209C45.4018 145.255 45.2018 146.055 44.8018 147.609C44.5618 148.542 44.7485 149.382 45.3618 150.129C45.5485 150.362 45.5185 150.565 45.2718 150.739L42.3618 152.789C42.2471 152.866 42.1083 152.9 41.9701 152.887C41.8318 152.873 41.7029 152.812 41.6061 152.714C41.5093 152.616 41.4507 152.487 41.4408 152.351C41.4309 152.215 41.4702 152.079 41.5518 151.969C43.5718 149.209 44.2252 146.135 43.5118 142.749C43.4385 142.389 43.2318 142.132 42.8918 141.979C40.9718 141.112 38.6918 140.929 36.0518 141.429C26.8985 143.162 18.9418 147.205 12.1818 153.559C7.90185 157.589 4.15186 163.159 4.47186 169.179C4.49186 169.505 4.61518 169.789 4.84185 170.029C6.63518 171.949 8.62184 173.252 10.8018 173.939C16.2218 175.649 23.0718 176.779 29.1518 178.889C35.2518 181.019 40.9118 183.359 39.4318 191.249C38.2018 197.789 32.9818 201.109 27.0718 204.019Z" fill="#F56BBD"/>
<path d="M138.282 153.889C139.402 151.409 141.652 145.489 144.142 144.379C144.502 144.212 144.768 144.309 144.942 144.669C145.435 145.702 145.522 146.786 145.202 147.919C144.295 151.112 143.138 154.222 141.732 157.249C139.585 161.862 137.612 166.556 135.812 171.329C135.685 171.649 135.448 171.809 135.102 171.809C134.928 171.809 134.755 171.809 134.582 171.809C134.455 171.809 134.382 171.872 134.362 171.999L132.192 185.799C132.155 186.036 132.196 186.279 132.308 186.491C132.419 186.703 132.596 186.874 132.813 186.978C133.029 187.082 133.273 187.114 133.508 187.069C133.744 187.025 133.959 186.905 134.122 186.729C139.572 180.779 143.562 175.089 145.842 167.109C147.968 159.696 150.592 152.876 153.712 146.649C154.198 145.676 155.008 144.922 156.142 144.389C156.495 144.222 156.758 144.312 156.932 144.659C157.982 146.709 156.562 150.899 155.692 152.929C152.998 159.162 150.292 165.392 147.572 171.619C147.505 171.786 147.382 171.849 147.202 171.809L146.842 171.719C146.808 171.712 146.788 171.722 146.782 171.749C145.348 176.562 144.568 181.472 144.442 186.479C144.428 186.959 144.645 187.112 145.092 186.939C149.222 185.369 154.912 175.049 156.692 171.099C157.785 168.686 159.628 167.456 162.222 167.409C162.555 167.402 162.858 167.489 163.132 167.669C164.205 168.356 164.945 169.296 165.352 170.489C165.379 170.563 165.428 170.627 165.493 170.674C165.557 170.72 165.633 170.746 165.711 170.748C165.79 170.75 165.866 170.728 165.93 170.686C165.995 170.643 166.044 170.581 166.072 170.509C166.545 169.316 167.362 168.452 168.522 167.919C169.795 167.332 170.138 167.676 169.552 168.949C167.785 172.809 166.518 176.826 165.752 180.999C165.726 181.149 165.751 181.303 165.823 181.437C165.895 181.571 166.009 181.678 166.149 181.739C166.288 181.8 166.444 181.812 166.592 181.774C166.739 181.736 166.869 181.65 166.962 181.529L174.702 171.259C174.782 171.151 174.886 171.063 175.006 171.004C175.126 170.945 175.259 170.916 175.392 170.919L175.752 170.929C176.078 170.942 176.145 171.079 175.952 171.339L168.072 181.949L165.812 183.589C165.465 183.836 165.138 183.816 164.832 183.529C162.272 181.179 165.342 174.349 166.462 172.569C166.475 172.542 166.465 172.529 166.432 172.529L166.172 172.519C166.125 172.519 166.088 172.539 166.062 172.579C164.462 174.769 162.532 176.049 160.432 177.709C159.298 178.596 157.982 178.822 156.482 178.389C156.088 178.269 155.842 178.009 155.742 177.609L155.662 177.309C155.522 176.722 155.282 176.682 154.942 177.189C152.612 180.709 149.292 186.199 145.762 188.539C145.435 188.754 145.055 188.886 144.664 188.92C144.272 188.954 143.885 188.889 143.544 188.731C143.204 188.574 142.923 188.331 142.734 188.029C142.545 187.726 142.454 187.377 142.472 187.019L142.912 178.359C142.965 177.419 142.738 177.346 142.232 178.139C140.152 181.419 136.492 187.259 133.202 188.829C132.908 188.969 132.615 188.976 132.322 188.849C129.042 187.409 130.982 178.609 131.772 175.119C131.789 175.049 131.782 174.976 131.752 174.911C131.721 174.846 131.669 174.793 131.604 174.763C131.539 174.732 131.465 174.725 131.396 174.742C131.326 174.76 131.264 174.801 131.222 174.859C129.148 177.572 126.528 179.519 123.362 180.699C123.032 180.822 122.677 180.865 122.327 180.826C121.977 180.786 121.641 180.664 121.347 180.47C121.052 180.277 120.808 180.016 120.633 179.71C120.459 179.404 120.359 179.061 120.342 178.709L120.202 175.689C120.2 175.653 120.188 175.617 120.168 175.587C120.148 175.557 120.12 175.533 120.087 175.518C120.054 175.502 120.018 175.496 119.981 175.5C119.945 175.503 119.911 175.517 119.882 175.539L116.632 178.039C116.525 178.121 116.399 178.175 116.266 178.194C116.133 178.213 115.997 178.198 115.872 178.149C112.762 176.989 114.592 172.769 115.042 170.509C115.062 170.416 115.056 170.319 115.023 170.23C114.99 170.141 114.932 170.062 114.857 170.005C114.781 169.947 114.691 169.912 114.596 169.904C114.501 169.896 114.406 169.915 114.322 169.959C111.055 171.592 108.912 174.172 107.892 177.699C107.846 177.851 107.75 177.983 107.619 178.072C107.488 178.161 107.33 178.202 107.172 178.189L106.122 178.099C106.028 178.09 105.937 178.059 105.858 178.007C105.779 177.954 105.715 177.884 105.67 177.8C105.625 177.717 105.602 177.624 105.603 177.529C105.603 177.435 105.627 177.342 105.672 177.259L106.632 175.449C106.678 175.362 106.665 175.296 106.592 175.249C106.572 175.242 106.555 175.232 106.542 175.219C106.515 175.199 106.492 175.202 106.472 175.229C105.142 177.169 101.282 183.019 98.9418 183.319C98.7052 183.349 98.4648 183.328 98.237 183.257C98.0093 183.186 97.7995 183.067 97.6221 182.907C97.4446 182.748 97.3036 182.552 97.2086 182.333C97.1137 182.114 97.067 181.877 97.0718 181.639C97.1251 179.019 97.7751 176.532 99.0218 174.179C99.0645 174.087 99.0725 173.982 99.0442 173.885C99.0159 173.787 98.9533 173.704 98.868 173.649C98.7826 173.594 98.6803 173.572 98.5799 173.586C98.4795 173.601 98.3878 173.652 98.3218 173.729C96.4684 176.096 94.1251 177.736 91.2918 178.649C91.0798 178.717 90.8563 178.742 90.6345 178.723C90.4127 178.704 90.1968 178.641 89.9995 178.537C89.8023 178.434 89.6275 178.293 89.4854 178.121C89.3433 177.95 89.2367 177.752 89.1718 177.539L88.9718 176.929C88.9455 176.847 88.8963 176.775 88.8302 176.72C88.7641 176.666 88.6838 176.631 88.5987 176.62C88.5136 176.61 88.4272 176.624 88.3498 176.661C88.2724 176.698 88.2072 176.756 88.1618 176.829C83.6518 184.249 71.9118 190.959 74.9218 174.459C74.9326 174.388 74.9186 174.316 74.8823 174.255C74.846 174.193 74.7895 174.146 74.7225 174.121C74.6555 174.096 74.582 174.096 74.5144 174.119C74.4469 174.142 74.3894 174.188 74.3518 174.249C73.2518 176.162 71.6618 177.436 69.5818 178.069C69.413 178.122 69.2319 178.124 69.0612 178.074C68.8905 178.024 68.7376 177.925 68.6218 177.789C66.8918 175.769 68.4418 172.119 68.9618 170.259C69.0818 169.839 68.9418 169.716 68.5418 169.889C65.0618 171.416 62.7851 174.006 61.7118 177.659C61.6357 177.898 61.4771 178.103 61.2643 178.236C61.0514 178.369 60.7981 178.423 60.5495 178.387C60.301 178.351 60.0733 178.228 59.907 178.039C59.7408 177.851 59.6468 177.61 59.6418 177.359V176.589C59.6418 176.489 59.6084 176.476 59.5418 176.549L53.0918 183.559C52.9873 183.67 52.8594 183.756 52.7174 183.812C52.5754 183.868 52.4229 183.891 52.2708 183.88C52.1186 183.87 51.9707 183.826 51.8377 183.751C51.7048 183.676 51.59 183.573 51.5018 183.449C49.6518 180.819 51.7818 176.209 52.7618 173.449C52.9551 172.902 52.8384 172.819 52.4118 173.199C49.9418 175.399 46.9618 179.749 43.1718 178.199C42.8785 178.079 42.7051 177.866 42.6518 177.559C42.0718 174.459 42.7151 171.799 44.5818 169.579C45.6818 168.266 46.9351 167.559 48.3418 167.459C50.2618 167.326 51.6151 168.382 52.4018 170.629C52.425 170.692 52.4672 170.747 52.5226 170.786C52.5781 170.825 52.6441 170.846 52.7118 170.846C52.7795 170.846 52.8455 170.825 52.9009 170.786C52.9564 170.747 52.9986 170.692 53.0218 170.629C53.4151 169.569 54.1051 168.742 55.0918 168.149C56.6451 167.216 57.0651 167.586 56.3518 169.259C54.7384 173.026 53.5385 176.912 52.7518 180.919C52.7289 181.048 52.7479 181.18 52.8062 181.297C52.8644 181.415 52.9588 181.51 53.0754 181.569C53.1919 181.629 53.3245 181.649 53.4535 181.627C53.5825 181.606 53.7011 181.543 53.7918 181.449C57.3251 177.642 60.1918 173.416 62.3918 168.769C62.4748 168.59 62.6077 168.44 62.7745 168.335C62.9413 168.23 63.1349 168.176 63.3318 168.179L63.9118 168.189C63.9872 168.189 64.0614 168.208 64.1283 168.243C64.1952 168.278 64.2529 168.329 64.2967 168.391C64.3405 168.454 64.3692 168.526 64.3806 168.602C64.3919 168.678 64.3854 168.756 64.3618 168.829L63.8018 170.449C63.7819 170.506 63.7799 170.568 63.7961 170.627C63.8124 170.686 63.846 170.738 63.8927 170.777C63.9393 170.816 63.9967 170.84 64.0573 170.846C64.1178 170.851 64.1787 170.839 64.2318 170.809C66.0518 169.709 69.1618 167.209 70.8718 169.749C70.9692 169.89 71.0347 170.051 71.0641 170.22C71.0934 170.389 71.0858 170.563 71.0418 170.729L69.8518 175.469C69.8158 175.62 69.8292 175.78 69.8901 175.923C69.951 176.066 70.0562 176.186 70.1903 176.266C70.3244 176.345 70.4803 176.379 70.6353 176.364C70.7903 176.348 70.9363 176.283 71.0518 176.179C72.4985 174.826 73.6751 173.399 74.5818 171.899C76.3418 168.989 77.0618 164.229 78.2618 160.649C78.2975 160.539 78.3055 160.422 78.2851 160.308C78.2646 160.195 78.2163 160.088 78.1447 159.999C78.073 159.909 77.9802 159.839 77.8749 159.796C77.7696 159.752 77.655 159.736 77.5418 159.749L71.5118 160.319C71.2051 160.352 71.0551 160.212 71.0618 159.899V159.459C71.0685 159.152 71.2251 158.992 71.5318 158.979L78.5218 158.619C78.8018 158.606 78.9818 158.466 79.0618 158.199C80.3018 154.072 81.8884 150.102 83.8218 146.289C84.8484 144.262 86.0118 143.702 87.3118 144.609C87.51 144.749 87.6565 144.951 87.7287 145.184C87.801 145.417 87.795 145.668 87.7118 145.899L83.3718 157.819C83.2051 158.292 83.3718 158.512 83.8718 158.479C88.2651 158.219 92.6285 158.466 96.9618 159.219C97.1268 159.248 97.2737 159.341 97.3709 159.478C97.4681 159.614 97.5079 159.783 97.4818 159.949L97.2818 161.129C97.2663 161.233 97.2172 161.33 97.1418 161.403C97.0665 161.477 96.9688 161.524 96.8634 161.537C96.758 161.551 96.6503 161.53 96.5564 161.478C96.4624 161.426 96.3872 161.346 96.3418 161.249L95.9218 160.329C95.7551 159.962 95.4685 159.769 95.0618 159.749L83.1918 159.309C82.7985 159.296 82.5084 159.462 82.3218 159.809C81.3884 161.482 80.6418 163.529 80.0818 165.949C79.9351 166.576 79.5185 167.069 78.8318 167.429C78.6958 167.499 78.5753 167.596 78.4773 167.714C78.3793 167.833 78.306 167.971 78.2618 168.119C77.0285 172.306 76.4485 176.576 76.5218 180.929C76.5323 181.552 76.788 182.146 77.2335 182.582C77.679 183.019 78.2784 183.262 78.9018 183.259C82.2318 183.239 86.9218 177.159 88.1418 174.749C89.5018 172.079 90.3818 169.039 92.9518 167.859C94.8918 166.966 96.7051 167.492 98.3918 169.439C98.5385 169.606 98.6218 169.786 98.6418 169.979C98.6818 170.259 98.6684 170.549 98.6018 170.849C98.5951 170.88 98.5966 170.912 98.6061 170.942C98.6157 170.972 98.633 170.999 98.6563 171.02C98.6796 171.041 98.7081 171.056 98.7389 171.063C98.7697 171.07 98.8017 171.068 98.8318 171.059C98.9318 171.032 99.0318 171.002 99.1318 170.969C99.2584 170.936 99.3385 170.859 99.3718 170.739C99.7718 169.372 100.592 168.386 101.832 167.779C101.958 167.715 102.1 167.691 102.24 167.71C102.38 167.73 102.51 167.792 102.614 167.888C102.717 167.984 102.789 168.109 102.819 168.247C102.849 168.385 102.836 168.529 102.782 168.659C101.342 172.286 100.168 175.989 99.2618 179.769C98.7551 181.869 99.2451 182.136 100.732 180.569C104.045 177.076 106.665 173.119 108.592 168.699C108.667 168.523 108.798 168.377 108.964 168.283C109.13 168.189 109.323 168.153 109.512 168.179L110.162 168.259C110.278 168.274 110.39 168.317 110.487 168.384C110.583 168.451 110.663 168.539 110.72 168.642C110.776 168.745 110.808 168.86 110.812 168.978C110.815 169.095 110.791 169.212 110.742 169.319L109.842 171.209C109.562 171.796 109.658 171.866 110.132 171.419C112.132 169.549 113.482 168.259 116.372 168.719C116.544 168.747 116.709 168.81 116.856 168.905C117.002 169 117.128 169.124 117.225 169.269C117.321 169.415 117.387 169.579 117.417 169.751C117.448 169.923 117.443 170.099 117.402 170.269L116.062 175.699C116.038 175.803 116.047 175.911 116.088 176.01C116.128 176.108 116.197 176.192 116.287 176.25C116.376 176.308 116.481 176.337 116.588 176.333C116.694 176.329 116.797 176.293 116.882 176.229C119.408 174.229 121.175 171.962 122.182 169.429C122.602 168.379 123.172 167.729 124.292 167.949C124.652 168.022 124.782 168.236 124.682 168.589C124.022 170.859 121.862 175.589 122.242 177.769C122.291 178.048 122.411 178.31 122.59 178.53C122.77 178.75 123.002 178.92 123.266 179.024C123.53 179.128 123.816 179.163 124.097 179.126C124.378 179.088 124.645 178.979 124.872 178.809C129.052 175.679 132.062 172.989 133.682 167.789C135.135 163.129 136.668 158.496 138.282 153.889ZM144.098 147.714C144.138 147.613 144.136 147.5 144.093 147.4C144.05 147.301 143.969 147.222 143.868 147.182L143.849 147.175C143.748 147.135 143.635 147.136 143.535 147.179C143.435 147.223 143.357 147.304 143.317 147.405L136.286 165.164C136.246 165.265 136.247 165.378 136.291 165.477C136.334 165.577 136.415 165.656 136.516 165.696L136.535 165.703C136.636 165.743 136.749 165.741 136.848 165.698C136.948 165.655 137.027 165.574 137.067 165.473L144.098 147.714ZM156.098 147.714C156.138 147.613 156.136 147.5 156.093 147.4C156.05 147.301 155.969 147.222 155.868 147.182L155.849 147.175C155.748 147.135 155.635 147.136 155.535 147.179C155.435 147.223 155.357 147.304 155.317 147.405L148.286 165.164C148.246 165.265 148.247 165.378 148.291 165.477C148.334 165.577 148.415 165.656 148.516 165.696L148.535 165.703C148.636 165.743 148.749 165.741 148.848 165.698C148.948 165.655 149.027 165.574 149.067 165.473L156.098 147.714ZM85.125 149.652C85.1502 149.587 85.1488 149.516 85.1212 149.453C85.0936 149.389 85.042 149.34 84.9778 149.315L84.9405 149.3C84.8763 149.275 84.8047 149.276 84.7416 149.304C84.6784 149.331 84.6287 149.383 84.6036 149.447L80.9986 158.646C80.9735 158.71 80.9748 158.782 81.0024 158.845C81.03 158.908 81.0816 158.958 81.1458 158.983L81.1831 158.998C81.2473 159.023 81.3188 159.021 81.382 158.994C81.4452 158.966 81.4948 158.915 81.52 158.85L85.125 149.652ZM96.4318 170.589L96.1018 170.009C96 169.833 95.8613 169.682 95.6951 169.565C95.529 169.448 95.3395 169.369 95.1397 169.333C94.9399 169.297 94.7347 169.305 94.5382 169.356C94.3417 169.407 94.1587 169.5 94.0018 169.629C91.7151 171.476 90.6685 173.836 90.8618 176.709C90.8951 177.209 91.1418 177.366 91.6018 177.179C94.1684 176.126 96.2518 174.456 97.8518 172.169C98.0851 171.842 98.0185 171.596 97.6518 171.429C97.5251 171.376 97.3951 171.326 97.2618 171.279C96.9018 171.152 96.6251 170.922 96.4318 170.589ZM158.812 177.109C161.092 175.969 162.982 174.359 164.482 172.279C164.708 171.966 164.658 171.702 164.332 171.489C163.905 171.216 163.582 170.819 163.362 170.299C163.248 170.034 163.073 169.801 162.851 169.617C162.629 169.434 162.366 169.305 162.085 169.243C161.804 169.18 161.512 169.185 161.233 169.258C160.955 169.33 160.697 169.468 160.482 169.659C158.468 171.439 157.512 173.686 157.612 176.399C157.617 176.537 157.657 176.672 157.728 176.791C157.799 176.911 157.899 177.01 158.018 177.081C158.138 177.151 158.273 177.191 158.412 177.196C158.55 177.201 158.688 177.171 158.812 177.109ZM46.9618 170.139C45.3118 172.019 44.2918 174.279 44.6118 176.879C44.6223 176.958 44.6511 177.034 44.6958 177.101C44.7405 177.167 44.7998 177.222 44.8689 177.261C44.9381 177.3 45.0151 177.322 45.0938 177.325C45.1725 177.328 45.2506 177.312 45.3218 177.279C47.6084 176.226 49.5451 174.732 51.1318 172.799C51.3651 172.512 51.4218 172.196 51.3018 171.849C50.7218 170.189 49.5885 169.456 47.9018 169.649C47.5218 169.689 47.2085 169.852 46.9618 170.139Z" fill="#F56BBD"/>
<path d="M269.805 153.808C268.714 156.59 267.968 158.899 268.138 158.966C268.308 159.032 269.329 156.831 270.419 154.049C271.509 151.267 272.256 148.958 272.086 148.892C271.916 148.825 270.895 151.027 269.805 153.808Z" fill="#35353E"/>
<path d="M124.432 167.229C125.073 167.229 125.592 166.709 125.592 166.069C125.592 165.428 125.073 164.909 124.432 164.909C123.791 164.909 123.272 165.428 123.272 166.069C123.272 166.709 123.791 167.229 124.432 167.229Z" fill="#F56BBD"/>
</svg>
