<svg width="212" height="259" viewBox="0 0 212 259" fill="none" xmlns="http://www.w3.org/2000/svg">
<path d="M127.844 170.534L113.054 189.544C112.943 189.686 112.799 189.797 112.633 189.868C112.468 189.94 112.286 189.969 112.103 189.953C111.92 189.937 111.742 189.877 111.584 189.778C111.425 189.679 111.291 189.544 111.194 189.384C111.094 189.217 110.99 188.971 110.884 188.644C110.797 188.404 110.78 188.147 110.834 187.874C113.204 175.384 110.994 164.754 104.744 153.274C101.064 146.521 96.6835 140.204 91.6035 134.324C84.3968 125.991 77.9935 118.151 72.3935 110.804C64.9735 101.064 59.1235 88.9741 58.2035 76.9041C56.5935 55.9341 67.7435 37.8841 79.9935 22.0441L99.5035 0.48408C99.6968 0.270746 99.9369 0.130733 100.224 0.0640661C101.15 -0.142601 101.8 0.150738 102.174 0.944071C102.247 1.09538 102.283 1.26267 102.278 1.43162C102.273 1.60057 102.227 1.76612 102.144 1.91407C90.6935 22.4541 96.7135 42.0541 109.544 60.1341C121.114 76.4341 136.134 93.5541 140.994 113.384C145.974 133.734 139.294 153.364 127.844 170.534Z" fill="#F56BBD"/>
<path d="M10.3535 175.474C-1.53987 151.441 -3.18653 127.231 5.41347 102.844C10.3135 88.9341 19.1835 75.6541 29.0935 64.5741C29.2614 64.3859 29.4793 64.2493 29.7219 64.1802C29.9644 64.1112 30.2216 64.1125 30.4635 64.1841C31.2968 64.4308 31.5601 65.0374 31.2535 66.0041C24.3935 87.6941 36.7935 107.374 49.7435 123.454C63.2935 140.294 80.1935 159.394 85.8935 180.694C92.0435 203.664 84.3735 225.404 70.3535 244.024C70.2705 244.134 70.1664 244.227 70.0474 244.296C69.9284 244.366 69.7969 244.411 69.6607 244.429C69.5245 244.446 69.3864 244.436 69.2546 244.4C69.1228 244.363 69 244.3 68.8935 244.214C53.5668 231.914 39.9968 218.351 28.1835 203.524C21.2301 194.804 15.2868 185.454 10.3535 175.474Z" fill="#F56BBD"/>
<path d="M157.023 247.664C136.733 257.574 113.943 261.314 91.7635 256.394C91.5271 256.342 91.3142 256.214 91.1571 256.03C91 255.846 90.9075 255.616 90.8935 255.374C90.8735 255.087 90.9268 254.761 91.0535 254.394C91.1535 254.107 91.3402 253.827 91.6135 253.554C97.7435 247.394 103.803 240.494 109.533 234.664C118.367 225.677 126.97 216.514 135.343 207.174C147.923 193.554 160.313 176.534 166.533 159.094C173.467 139.647 173.703 119.704 167.243 99.264C165.837 94.824 164.36 90.394 162.813 85.974C162.613 85.4007 162.543 85.044 162.603 84.904C162.681 84.7193 162.801 84.5556 162.954 84.4262C163.107 84.2968 163.289 84.2055 163.484 84.1597C163.679 84.1138 163.882 84.1148 164.077 84.1625C164.271 84.2101 164.452 84.3032 164.603 84.434C177.913 96.134 189.913 109.514 198.773 124.914C217.723 157.884 215.703 193.634 190.443 222.594C181.59 232.747 170.45 241.104 157.023 247.664Z" fill="#F56BBD"/>
</svg>
